<?xml version="1.0" encoding="UTF-8"?>
<svg width="31px" height="24px" viewBox="0 0 31 24" version="1.1" xmlns="http://www.w3.org/2000/svg" xmlns:xlink="http://www.w3.org/1999/xlink">
    <!-- Generator: Sketch 51 (57462) - http://www.bohemiancoding.com/sketch -->
    <title>Fill 1</title>
    <desc>Created with Sketch.</desc>
    <defs></defs>
    <g id="City-Voice" stroke="none" stroke-width="1" fill="none" fill-rule="evenodd">
        <g id="Desktop-HD" transform="translate(-846.000000, -11566.000000)" fill="#242437">
            <g id="Group-37" transform="translate(546.000000, 11515.000000)" fill-rule="nonzero">
                <g id="Group-36" transform="translate(0.000000, 30.000000)">
                    <g id="Group-32-Copy" transform="translate(315.500000, 32.500000) scale(-1, 1) translate(-315.500000, -32.500000) translate(283.000000, 0.000000)">
                        <path d="M46.821222,31.9044783 L20.3542404,31.9044254 L21.3311107,30.8885462 L29.1367584,22.771476 C29.3307997,22.5796534 29.4422871,22.3138729 29.4442476,22.0347491 C29.446224,21.7533603 29.3387085,21.4840448 29.148753,21.2903969 C28.9611632,21.0991555 28.7096159,20.9952649 28.4467151,21.0001658 C28.1880091,21.0040289 27.9407298,21.1165654 27.749375,21.3258879 L17.2899041,32.2004801 C16.9033011,32.6016828 16.9033011,33.2548318 17.2902893,33.6564347 L27.7388218,44.5199263 C28.12053,44.8973882 28.7163524,44.8926309 29.0917159,44.5089394 C29.4773128,44.1158265 29.4882391,43.4699991 29.126228,43.0743528 L20.3537249,33.9565731 L46.821222,33.9565731 C47.3584246,33.9565731 47.7999519,33.5018124 47.7999519,32.9305257 C47.7999519,32.359239 47.3584246,31.9044783 46.821222,31.9044783 Z" id="Fill-1"></path>
                    </g>
                </g>
            </g>
        </g>
    </g>
</svg>