<?xml version="1.0" encoding="UTF-8"?>
<svg width="32px" height="25px" viewBox="0 0 32 25" version="1.1" xmlns="http://www.w3.org/2000/svg" xmlns:xlink="http://www.w3.org/1999/xlink">
    <!-- Generator: Sketch 51 (57462) - http://www.bohemiancoding.com/sketch -->
    <title>Fill 1</title>
    <desc>Created with Sketch.</desc>
    <defs></defs>
    <g id="City-Voice" stroke="none" stroke-width="1" fill="none" fill-rule="evenodd">
        <g id="Desktop-HD" transform="translate(-77.000000, -80.000000)" fill="#242437">
            <g id="Group-35" transform="translate(60.000000, 60.000000)" fill-rule="nonzero">
                <g id="Group-32">
                    <path d="M47.4212701,31.5045136 L20.9542886,31.5044608 L21.9311588,30.4885816 L29.7368066,22.3715114 C29.9308478,22.1796888 30.0423352,21.9139083 30.0442957,21.6347845 C30.0462721,21.3533957 29.9387567,21.0840802 29.7488012,20.8904323 C29.5612113,20.6991909 29.309664,20.5953003 29.0467632,20.6002012 C28.7880572,20.6040643 28.5407779,20.7166008 28.3494232,20.9259233 L17.8899523,31.8005155 C17.5033492,32.2017182 17.5033492,32.8548672 17.8903375,33.2564701 L28.33887,44.1199617 C28.7205781,44.4974236 29.3164005,44.4926663 29.6917641,44.1089748 C30.077361,43.7158619 30.0882873,43.0700344 29.7262761,42.6743882 L20.9537731,33.5566085 L47.4212701,33.5566085 C47.9584727,33.5566085 48.4,33.1018478 48.4,32.5305611 C48.4,31.9592744 47.9584727,31.5045136 47.4212701,31.5045136 Z" id="Fill-1"></path>
                </g>
            </g>
        </g>
    </g>
</svg>