<?xml version="1.0" encoding="UTF-8"?>
<svg width="480px" height="160px" viewBox="0 0 480 160" version="1.1" xmlns="http://www.w3.org/2000/svg" xmlns:xlink="http://www.w3.org/1999/xlink">
    <!-- Generator: sketchtool 52.2 (67145) - http://www.bohemiancoding.com/sketch -->
    <title>3BB0DB85-F691-4755-9B85-D924F00DBE72</title>
    <desc>Created with sketchtool.</desc>
    <g id="Design" stroke="none" stroke-width="1" fill="none" fill-rule="evenodd">
        <g id="1.-Case---bamboobar" transform="translate(-480.000000, -360.000000)" fill="#FFFFFF">
            <g id="1">
                <g id="logo" transform="translate(480.000000, 360.000000)">
                    <path d="M0.972771908,158.792862 L0.972771908,28.7554441 C0.972771908,28.7554441 1.10016517,28.5667105 1.77709799,28.6598191 C2.46402244,28.7478947 2.8337127,28.974375 2.8337127,28.974375 C5.68132679,30.2124671 8.10929249,34.1129605 10.1151119,39.183602 C15.5305745,52.8529441 15.7778673,66.768898 11.1742245,80.589227 C9.14592393,86.6941283 6.34077426,91.8452961 3.1509469,93.5791283 L2.60140734,93.8383224 L3.1509469,94.1000329 C6.34077426,95.8338651 9.14342602,100.977484 11.1742245,107.094967 C15.7778673,120.925362 15.5305745,134.836283 10.1151119,148.503109 C8.21670249,153.296941 5.72878702,156.422368 3.3982397,157.954885 C3.3982397,157.952368 2.31165011,158.611678 0.972771908,158.792862 Z M209.50555,158.792862 L209.50555,28.7554441 C209.50555,28.7554441 209.62545,28.5667105 210.309876,28.6598191 C210.991805,28.7478947 211.363993,28.974375 211.363993,28.974375 C214.204113,30.2124671 216.634577,34.1129605 218.64789,39.183602 C224.063353,52.8529441 224.303152,66.768898 219.707003,80.589227 C217.676204,86.6941283 214.866059,91.8452961 211.676231,93.5791283 L211.131688,93.8383224 L211.676231,94.1000329 C214.866059,95.8338651 217.673706,100.977484 219.707003,107.094967 C224.303152,120.925362 224.063353,134.836283 218.64789,148.503109 C216.744485,153.296941 214.251574,156.422368 211.921026,157.954885 C211.918528,157.952368 210.836935,158.611678 209.50555,158.792862 Z M271.463638,55.3417105 C277.593502,82.9974671 277.271272,110.829375 270.054818,138.168059 C267.377062,148.306826 263.964921,156.36449 260.165604,158.838158 C256.371283,156.361974 252.954146,148.306826 250.281386,138.168059 C243.06743,110.829375 242.740204,82.9974671 248.872566,55.3417105 C251.705193,42.5581579 255.664375,31.7751809 260.165604,28.8485526 C264.66933,31.7751809 268.623517,42.5581579 271.463638,55.3417105 Z M260.830047,135.173487 C261.317139,109.684391 261.342118,83.7297533 260.924968,57.9336513 C260.735127,46.018273 260.470349,35.9600329 260.165604,33.2347204 C259.860859,35.9600329 259.598579,46.018273 259.408738,57.9336513 C258.994086,83.7297533 259.019065,109.684391 259.506157,135.173487 C259.676014,144.622747 259.90832,152.146924 260.165604,154.457023 C260.427884,152.149441 260.655194,144.622747 260.830047,135.173487 Z M320.689893,55.3417105 C326.822255,82.9974671 326.502523,110.829375 319.281073,138.168059 C316.608313,148.306826 313.191176,156.36449 309.396855,158.838158 C305.600036,156.361974 302.180401,148.306826 299.510139,138.168059 C292.291187,110.829375 291.966459,82.9974671 298.103817,55.3417105 C300.933946,42.5581579 304.890631,31.7751809 309.396855,28.8485526 C313.893088,31.7751809 317.857266,42.5581579 320.689893,55.3417105 Z M310.063796,135.173487 C310.553386,109.684391 310.565876,83.7297533 310.158717,57.9336513 C309.971374,46.018273 309.704098,35.9600329 309.399353,33.2347204 C309.097106,35.9600329 308.824834,46.018273 308.637491,57.9336513 C308.23283,83.7297533 308.242822,109.684391 308.729914,135.173487 C308.909763,144.622747 309.139571,152.146924 309.399353,154.457023 C309.659135,152.149441 309.881449,144.622747 310.063796,135.173487 Z M78.1605991,53.1247204 C89.3712062,79.5901974 94.1921669,107.477467 92.0789375,136.220329 C91.3020884,146.867418 89.3986832,155.596974 86.0864584,158.795378 L74.6635292,97.0568586 L49.2148517,97.0568586 L37.7894246,158.795378 C34.4672082,155.596974 32.5737946,146.864901 31.7969455,136.220329 C29.6887119,107.477467 34.5121705,79.5901974 45.7202797,53.1247204 C50.9059348,40.8897533 56.8334683,30.8768092 61.84427,28.8284211 L49.582044,95.0889967 L74.3013327,95.0889967 L62.0366088,28.8284211 C67.0474105,30.8768092 72.9799398,40.8897533 78.1605991,53.1247204 Z M352.695577,158.792862 L352.695577,28.7554441 C352.695577,28.7554441 352.820472,28.5667105 353.489911,28.6598191 C354.176836,28.7478947 354.549024,28.974375 354.549024,28.974375 C357.39414,30.2124671 359.824603,34.1129605 361.827925,39.183602 C367.248383,52.8529441 367.495676,66.768898 362.887038,80.589227 C360.866231,86.6941283 358.056085,91.8452961 354.868756,93.5791283 L354.319216,93.8383224 L354.868756,94.1000329 C358.056085,95.8338651 360.863733,100.977484 362.887038,107.094967 C367.495676,120.925362 367.248383,134.836283 361.827925,148.503109 C359.929516,153.296941 357.4416,156.422368 355.111053,157.954885 C355.111053,157.952368 354.021965,158.611678 352.695577,158.792862 Z M429.868416,53.1247204 C441.084019,79.5901974 445.907478,107.477467 443.796746,136.220329 C443.012404,146.867418 441.11899,155.596974 437.801769,158.795378 L426.37884,97.0568586 L400.935158,97.0568586 L389.507234,158.795378 C386.182519,155.596974 384.291604,146.864901 383.512256,136.220329 C381.409019,107.477467 386.232477,79.5901974 397.440586,53.1247204 C402.621246,40.8897533 408.546281,30.8768092 413.562079,28.8284211 L401.292359,95.0889967 L426.011648,95.0889967 L413.746924,28.8284211 C418.757726,30.8768092 424.687757,40.8897533 429.868416,53.1247204 Z M175.72885,53.1247204 C186.93696,79.5901974 191.765414,107.477467 189.654682,136.217813 C188.87034,146.864901 186.981922,155.594457 183.652212,158.792862 L160.983705,36.2846546 L149.276014,156.679046 L149.093667,158.523602 L147.437555,158.523602 L147.252709,156.679046 L135.407634,36.0229441 L112.686671,158.792862 C109.364455,155.594457 107.471041,146.864901 106.686698,136.232911 C104.580963,107.502632 109.409417,79.6203947 120.615028,53.1675 C125.800683,40.9400822 131.728217,30.9271382 136.734023,28.8636513 L136.684065,29.1505263 L136.731525,28.9240461 L148.26686,146.399359 L159.662312,29.1480099 L159.609856,28.8284211 C164.615662,30.8768092 170.545693,40.8897533 175.72885,53.1247204 Z M464.122216,30.2376316 C468.943177,36.0430757 494.943892,70.5007895 465.775831,106.722533 C470.339507,112.80227 479.779098,127.659375 479.39442,146.140164 L479.39442,158.870872 L477.41358,158.870872 L477.41358,146.64597 C477.778275,129.101299 469.282893,114.815428 464.519384,108.20472 C464.389492,108.36074 464.242116,108.521793 464.122216,108.677813 L464.122216,158.792862 L462.158861,158.792862 L462.158861,29.6110362 L463.362853,29.6110362 L463.362853,29.3543586 C463.362853,29.3543586 463.455275,29.4625658 463.600154,29.6110362 L464.122216,29.6110362 L464.122216,30.2376316 Z M338.509962,140.156053 C340.255999,145.38523 340.163577,150.634539 338.107799,155.795773 C337.345938,157.708273 336.37675,159.23324 335.292658,159.69375 C334.213562,159.23324 333.241876,157.708273 332.482512,155.795773 C330.431731,150.634539 330.339308,145.38523 332.085345,140.156053 C332.889671,137.747813 334.013729,135.706974 335.292658,135.153355 C336.576582,135.706974 337.705636,137.747813 338.509962,140.156053 Z M335.627377,153.422763 C335.877168,149.716036 335.877168,145.971563 335.669842,142.229605 C335.572423,140.500806 335.442532,139.046299 335.29016,138.643668 C335.140286,139.046299 335.010394,140.500806 334.910478,142.229605 C334.710646,145.971562 334.718139,149.716036 334.960436,153.422763 C335.052859,154.784161 335.17026,155.86875 335.292658,156.20847 C335.420051,155.871266 335.532457,154.784161 335.627377,153.422763 Z" id="Combined-Shape"></path>
                    <path d="M1.17760029,0.772549342 C1.97443265,0.636661184 3.01356201,0.518388158 4.34494649,0.518388158 C5.97358192,0.518388158 7.17007942,0.900888158 7.93194108,1.59039474 C8.62885716,2.20189145 9.04850555,3.13549342 9.04850555,4.28550987 C9.04850555,5.450625 8.70629228,6.36409539 8.06183225,7.03347039 C7.18756477,7.97210526 5.76875354,8.44771382 4.15510555,8.44771382 C3.66301785,8.44771382 3.20590085,8.42758224 2.82871688,8.33447368 L2.82871688,13.4881579 L1.1800982,13.4881579 L1.17760029,0.772549342 Z M2.82621897,6.97810855 C3.1859176,7.07373355 3.64053669,7.11148026 4.19257416,7.11148026 C6.18340611,7.11148026 7.39738896,6.13761513 7.39738896,4.36351974 C7.39738896,2.66240132 6.20089146,1.83700658 4.37741928,1.83700658 C3.66051994,1.83700658 3.10848248,1.89488487 2.82621897,1.97289474 C2.82621897,1.97289474 2.82621897,6.97810855 2.82621897,6.97810855 Z M27.8502523,9.44422697 L26.5213657,13.4906743 L24.8152952,13.4906743 L29.1566577,0.616529605 L31.1474896,0.616529605 L35.5113333,13.4906743 L33.745313,13.4906743 L32.3814558,9.44422697 C32.3814558,9.44422697 27.8502523,9.44422697 27.8502523,9.44422697 Z M32.0417404,8.14574013 L30.787791,4.43649671 C30.5055275,3.59851974 30.3156866,2.83351974 30.1233477,2.08865132 L30.0858791,2.08865132 C29.8960382,2.85113487 29.6887119,3.63878289 29.4414191,4.41636513 L28.1899676,8.14574013 C28.1899676,8.14574013 32.0417404,8.14574013 32.0417404,8.14574013 Z M53.4937665,13.4906743 L53.4937665,0.616529605 L55.2947576,0.616529605 L59.3913252,7.13161184 C60.338032,8.63896382 61.0799104,9.99532895 61.6869018,11.3164638 L61.7243704,11.2963322 C61.5719981,9.57508224 61.5345295,8.00985197 61.5345295,6.00424342 L61.5345295,0.616529605 L63.0907256,0.616529605 L63.0907256,13.4906743 L61.4171279,13.4906743 L57.3580288,6.95546053 C56.4712718,5.52611842 55.6169876,4.05651316 54.9725275,2.66240132 L54.9150757,2.68253289 C55.0099962,4.30815789 55.0499627,5.85325658 55.0499627,7.98972039 L55.0499627,13.4906743 C55.0499627,13.4906743 53.4937665,13.4906743 53.4937665,13.4906743 Z M84.1405887,9.44422697 L82.8142001,13.4906743 L81.1056316,13.4906743 L85.45199,0.616529605 L87.440324,0.616529605 L91.8041677,13.4906743 L90.0431432,13.4906743 L88.6717922,9.44422697 C88.6717922,9.44422697 84.1405887,9.44422697 84.1405887,9.44422697 Z M88.3345747,8.14574013 L87.0831233,4.43649671 C86.8008598,3.59851974 86.6085209,2.83351974 86.41868,2.08865132 L86.3787135,2.08865132 C86.1888725,2.85113487 85.9790484,3.63878289 85.7342535,4.41636513 L84.4803041,8.14574013 C84.4803041,8.14574013 88.3345747,8.14574013 88.3345747,8.14574013 Z M109.559291,11.4699671 C110.296174,11.9279605 111.385261,12.3104605 112.521809,12.3104605 C114.205399,12.3104605 115.192072,11.4120888 115.192072,10.1110855 C115.192072,8.90570724 114.512641,8.21620066 112.784089,7.55185855 C110.695839,6.80447368 109.409417,5.71485197 109.409417,3.90049342 C109.409417,1.89236842 111.058036,0.402631579 113.545951,0.402631579 C114.849859,0.402631579 115.799063,0.709638158 116.366088,1.03425987 L115.911469,2.39314145 C115.496817,2.15911184 114.642532,1.77661184 113.486001,1.77661184 C111.739964,1.77661184 111.075521,2.82848684 111.075521,3.71175987 C111.075521,4.91462171 111.854868,5.50598684 113.61839,6.19297697 C115.77908,7.03095395 116.883155,8.08282895 116.883155,9.97268092 C116.883155,11.9606743 115.419381,13.7020559 112.404408,13.7020559 C111.175437,13.7020559 109.826567,13.3195559 109.144639,12.8640789 L109.559291,11.4699671 Z M136.893889,0.616529605 L136.893889,13.4906743 L135.24527,13.4906743 L135.24527,0.616529605 L136.893889,0.616529605 Z M157.953743,9.44422697 L156.624857,13.4906743 L154.918786,13.4906743 L159.260149,0.616529605 L161.248483,0.616529605 L165.614825,13.4906743 L163.848804,13.4906743 L162.487445,9.44422697 C162.487445,9.44422697 157.953743,9.44422697 157.953743,9.44422697 Z M162.142734,8.14574013 L160.89378,4.43649671 C160.609019,3.59851974 160.419178,2.83351974 160.229337,2.08865132 L160.191868,2.08865132 C159.999529,2.85113487 159.792203,3.63878289 159.54491,4.41636513 L158.293459,8.14574013 L162.142734,8.14574013 Z M183.599756,13.4906743 L183.599756,0.616529605 L185.400747,0.616529605 L189.494816,7.13161184 C190.446519,8.63896382 191.188397,9.99532895 191.792891,11.3164638 L191.832857,11.2963322 C191.680485,9.57508224 191.643016,8.00985197 191.643016,6.00424342 L191.643016,0.616529605 L193.199213,0.616529605 L193.199213,13.4906743 L191.528113,13.4906743 L187.471512,6.95546053 C186.579759,5.52611842 185.725475,4.05651316 185.081015,2.66240132 L185.028558,2.68253289 C185.120981,4.30815789 185.15845,5.85325658 185.15845,7.98972039 L185.15845,13.4906743 C185.15845,13.4906743 183.599756,13.4906743 183.599756,13.4906743 Z M232.31394,0.787648026 C233.148241,0.616529605 234.34224,0.518388158 235.481286,0.518388158 C237.247306,0.518388158 238.383854,0.845526316 239.178189,1.57026316 C239.822649,2.14149671 240.182347,3.02225329 240.182347,4.01373355 C240.182347,5.71736842 239.120737,6.84473684 237.774365,7.30776316 L237.774365,7.36060855 C238.75854,7.70536184 239.348046,8.62386513 239.650293,9.96009868 C240.067443,11.7593586 240.372188,12.9999671 240.639464,13.4931908 L238.930896,13.4931908 C238.723569,13.1182401 238.438808,12.026102 238.074114,10.4206086 C237.699428,8.64148026 237.015001,7.97462171 235.518755,7.91674342 L233.962559,7.91674342 L233.962559,13.4931908 L232.31394,13.4931908 L232.31394,0.787648026 Z M233.962559,6.65097039 L235.648646,6.65097039 C237.417164,6.65097039 238.533729,5.67962171 238.533729,4.2075 C238.533729,2.54412829 237.337231,1.81939145 235.59619,1.80177632 C234.79686,1.80177632 234.229835,1.87475329 233.962559,1.95024671 L233.962559,6.65097039 Z M265.238853,7.45623355 L260.273014,7.45623355 L260.273014,12.0965625 L265.81587,12.0965625 L265.81587,13.4906743 L258.624395,13.4906743 L258.624395,0.616529605 L265.526113,0.616529605 L265.526113,2.01064145 L260.273014,2.01064145 L260.273014,6.07973684 L265.238853,6.07973684 C265.238853,6.07973684 265.238853,7.45623355 265.238853,7.45623355 Z M283.828278,11.4699671 C284.567658,11.9279605 285.656746,12.3104605 286.790796,12.3104605 C288.481879,12.3104605 289.463556,11.4120888 289.463556,10.1110855 C289.463556,8.90570724 288.781628,8.21620066 287.053076,7.55185855 C284.967324,6.80447368 283.675906,5.71485197 283.675906,3.90049342 C283.675906,1.89236842 285.324524,0.402631579 287.814938,0.402631579 C289.121343,0.402631579 290.065552,0.709638158 290.642569,1.03425987 L290.185452,2.39314145 C289.768301,2.15911184 288.911519,1.77661184 287.75249,1.77661184 C286.003955,1.77661184 285.344508,2.82848684 285.344508,3.71175987 C285.344508,4.91462171 286.123855,5.50598684 287.887377,6.19297697 C290.048067,7.03095395 291.147146,8.08282895 291.147146,9.97268092 C291.147146,11.9606743 289.688368,13.7020559 286.675892,13.7020559 C285.446922,13.7020559 284.095554,13.3195559 283.416123,12.8640789 L283.828278,11.4699671 Z M311.942222,2.03077303 L308.052981,2.03077303 L308.052981,0.619046053 L317.517551,0.619046053 L317.517551,2.03077303 L313.613322,2.03077303 L313.613322,13.4906743 L311.942222,13.4906743 L311.942222,2.03077303 Z M335.692323,9.44422697 L334.360939,13.4906743 L332.662362,13.4906743 L337.003724,0.616529605 L338.98956,0.616529605 L343.350906,13.4906743 L341.589882,13.4906743 L340.226024,9.44422697 C340.226024,9.44422697 335.692323,9.44422697 335.692323,9.44422697 Z M339.883811,8.14574013 L338.63236,4.43649671 C338.347598,3.59851974 338.155259,2.83351974 337.967916,2.08865132 L337.925452,2.08865132 C337.738109,2.85113487 337.538276,3.63878289 337.280992,4.41636513 L336.032038,8.14574013 C336.032038,8.14574013 339.883811,8.14574013 339.883811,8.14574013 Z M362.457398,0.616529605 L362.457398,8.24136513 C362.457398,11.1252138 363.721339,12.3456908 365.434903,12.3456908 C367.330814,12.3456908 368.539801,11.0849507 368.539801,8.24136513 L368.539801,0.616529605 L370.213399,0.616529605 L370.213399,8.12560855 C370.213399,12.0814638 368.140136,13.7045724 365.382447,13.7045724 C362.759644,13.7045724 360.7838,12.1896711 360.7838,8.20110197 L360.7838,0.614013158 L362.457398,0.616529605 Z M389.185004,0.787648026 C390.016807,0.616529605 391.20581,0.518388158 392.347354,0.518388158 C394.110876,0.518388158 395.242428,0.845526316 396.044256,1.57026316 C396.688716,2.14149671 397.045917,3.02225329 397.045917,4.01373355 C397.045917,5.71736842 395.981809,6.84473684 394.640433,7.30776316 L394.640433,7.36060855 C395.629604,7.70536184 396.21911,8.62386513 396.521357,9.96009868 C396.936009,11.7593586 397.238256,12.9999671 397.503034,13.4931908 L395.794466,13.4931908 C395.582144,13.1182401 395.307374,12.026102 394.937684,10.4206086 C394.565495,8.64148026 393.876073,7.97462171 392.38732,7.91674342 L390.826128,7.91674342 L390.826128,13.4931908 L389.182506,13.4931908 L389.185004,0.787648026 Z M390.831124,6.65097039 L392.517212,6.65097039 C394.28573,6.65097039 395.399796,5.67962171 395.399796,4.2075 C395.399796,2.54412829 394.210793,1.81939145 392.457262,1.80177632 C391.667923,1.80177632 391.090907,1.87475329 390.831124,1.95024671 L390.831124,6.65097039 Z M417.651153,9.44422697 L416.324764,13.4906743 L414.623689,13.4906743 L418.96755,0.616529605 L420.953386,0.616529605 L425.312234,13.4906743 L423.551209,13.4906743 L422.18985,9.44422697 C422.18985,9.44422697 417.651153,9.44422697 417.651153,9.44422697 Z M421.845139,8.14574013 L420.598683,4.43649671 C420.306428,3.59851974 420.119085,2.83351974 419.93424,2.08865132 L419.889278,2.08865132 C419.704432,2.85113487 419.497106,3.63878289 419.244818,4.41636513 L417.998362,8.14574013 C417.998362,8.14574013 421.845139,8.14574013 421.845139,8.14574013 Z M443.297165,13.4906743 L443.297165,0.616529605 L445.098156,0.616529605 L449.199719,7.13161184 C450.138933,8.63896382 450.883309,9.99532895 451.4903,11.3164638 L451.530267,11.2963322 C451.375397,9.57508224 451.342924,8.00985197 451.342924,6.00424342 L451.342924,0.616529605 L452.896622,0.616529605 L452.896622,13.4906743 L451.223024,13.4906743 L447.171419,6.95546053 C446.284662,5.52611842 445.422884,4.05651316 444.778424,2.66240132 L444.72347,2.68253289 C444.81839,4.30815789 444.860855,5.85325658 444.860855,7.98972039 L444.860855,13.4906743 C444.860855,13.4906743 443.297165,13.4906743 443.297165,13.4906743 Z M474.306184,2.03077303 L470.416942,2.03077303 L470.416942,0.619046053 L479.881512,0.619046053 L479.881512,2.03077303 L475.977284,2.03077303 L475.977284,13.4906743 L474.306184,13.4906743 L474.306184,2.03077303 Z" id="Combined-Shape" fill-rule="nonzero"></path>
                </g>
            </g>
        </g>
    </g>
</svg>