<svg id="Слой_1" data-name="Слой 1" xmlns="http://www.w3.org/2000/svg" width="27" height="17" viewBox="0 0 27 17"><title>behance</title><g id="Page-1"><g id="Портфолио"><g id="social"><path id="Behance" d="M24.38,2.41H17.62V0.71h6.77v1.7h0Zm-11.27,7a4.54,4.54,0,0,1,.65,2.49A5,5,0,0,1,13,14.58a4.68,4.68,0,0,1-1.19,1.34,4.57,4.57,0,0,1-1.9.85A11.59,11.59,0,0,1,7.57,17H0V0H8.11c2,0,3.49.63,4.35,1.81a4.36,4.36,0,0,1,.77,2.6,3.81,3.81,0,0,1-.78,2.5,4,4,0,0,1-1.28,1A3.74,3.74,0,0,1,13.11,9.38ZM3.87,6.7H7.43a3.34,3.34,0,0,0,1.78-.42,1.61,1.61,0,0,0,.68-1.49A1.52,1.52,0,0,0,9,3.22,6.28,6.28,0,0,0,7,3H3.87V6.7Zm6.35,4.92A1.83,1.83,0,0,0,9.16,9.8a4.17,4.17,0,0,0-1.68-.29H3.87V14H7.42a3.9,3.9,0,0,0,1.7-.3A2.15,2.15,0,0,0,10.23,11.63ZM26.89,8.86a16.18,16.18,0,0,1,.1,2.42H18.24a2.92,2.92,0,0,0,1.26,2.57,3.14,3.14,0,0,0,1.73.46A2.63,2.63,0,0,0,23,13.75a2.65,2.65,0,0,0,.65-0.84h3.21a4,4,0,0,1-1.17,2.2,5.81,5.81,0,0,1-4.53,1.78,6.52,6.52,0,0,1-4.24-1.5q-1.83-1.5-1.83-4.88a6.64,6.64,0,0,1,1.66-4.85A5.77,5.77,0,0,1,21,4a6.79,6.79,0,0,1,2.83.57,4.89,4.89,0,0,1,2.08,1.8A6.05,6.05,0,0,1,26.89,8.86Zm-3.16.32a2.67,2.67,0,0,0-.84-1.92A2.72,2.72,0,0,0,21,6.59a2.48,2.48,0,0,0-1.88.7,3.3,3.3,0,0,0-.84,1.89h5.42Z" fill="#191926"/></g></g></g></svg>