<?xml version="1.0" encoding="UTF-8"?>
<svg width="19px" height="19px" viewBox="0 0 19 19" version="1.1" xmlns="http://www.w3.org/2000/svg" xmlns:xlink="http://www.w3.org/1999/xlink">
    <!-- Generator: Sketch 51 (57462) - http://www.bohemiancoding.com/sketch -->
    <title>Shape</title>
    <desc>Created with Sketch.</desc>
    <defs></defs>
    <g id="Page-1" stroke="none" stroke-width="1" fill="none" fill-rule="evenodd">
        <g id="Контакты" transform="translate(-1286.000000, -128.000000)" fill="#FFFFFF">
            <g id="Close" transform="translate(1270.000000, 112.000000)" fill-rule="nonzero" stroke="#FFFFFF">
                <path d="M17.5297248,17.006084 C17.3017977,17.0282665 17.1077137,17.1812753 17.0329393,17.3977317 C16.9581648,17.6141881 17.0164216,17.8543708 17.1820557,18.0125134 L24.67524,25.5058383 L17.1820557,32.9900137 C17.0284717,33.1360793 16.9657979,33.353734 17.0181839,33.5591109 C17.0705698,33.7644879 17.2298384,33.9255291 17.4346201,33.9801821 C17.6394018,34.0348351 17.8577316,33.974569 18.0054825,33.8226054 L25.4986668,26.3292806 L32.9918511,33.8226054 C33.139602,33.974569 33.3579318,34.0348351 33.5627135,33.9801821 C33.7674953,33.9255291 33.9267638,33.7644879 33.9791498,33.5591109 C34.0315357,33.353734 33.9688619,33.1360793 33.8152779,32.9900137 L26.3220937,25.5058383 L33.8152779,18.0125134 C34.0016378,17.8374815 34.0529099,17.5617805 33.9419351,17.3314511 C33.8309603,17.1011217 33.583393,16.9694098 33.330371,17.006084 C33.2013254,17.0247276 33.0821924,17.0859052 32.9918511,17.1799218 L25.4986668,24.6732466 L18.0054825,17.1799218 C17.8814547,17.0528397 17.7064644,16.9888997 17.5297248,17.006084 Z" id="Shape"></path>
            </g>
        </g>
    </g>
</svg>