<?xml version="1.0" encoding="UTF-8"?>
<svg width="39px" height="23px" viewBox="0 0 39 23" version="1.1" xmlns="http://www.w3.org/2000/svg" xmlns:xlink="http://www.w3.org/1999/xlink">
    <!-- Generator: Sketch 51 (57462) - http://www.bohemiancoding.com/sketch -->
    <title>code</title>
    <desc>Created with Sketch.</desc>
    <defs></defs>
    <g id="Page-1" stroke="none" stroke-width="1" fill="none" fill-rule="evenodd">
        <g id="code" transform="translate(0.000000, -2.000000)" fill="#242437">
            <path d="M23.0141976,0 L23,0.0003274 C23.0023663,0.0002636 23.0047324,0.0002008 23.0070985,0.000139 C23.0094643,0.0001048 23.0118308,5.19e-05 23.0141976,0 Z M22.9569583,2.67898 C22.5055614,2.6888124 22.120437,2.9526898 21.9932703,3.3472709 L15.0425056,23.8402793 C14.9650897,24.0693944 14.9938911,24.3155734 15.1250742,24.5297931 C15.2518474,24.7384055 15.4697842,24.894938 15.7251194,24.9624485 C15.9889203,25.0310248 16.2678583,25.0050547 16.5069308,24.889635 C16.7443315,24.7754205 16.9213295,24.5818262 16.9993478,24.3479846 L23.9540217,3.8436203 C24.0515772,3.5653806 23.9917635,3.2632024 23.7948117,3.0332407 C23.5962466,2.8022977 23.2839135,2.670235 22.9569583,2.67898 Z M9.2037033,3.8892916 L0.2648785,12.7308785 C-0.0879373,13.0815911 -0.0879373,13.625502 0.2627499,13.974104 L9.2037033,22.8178015 L9.2612195,22.8787994 C9.4341428,23.0755565 9.6853753,23.196159 9.9570757,23.2122513 C10.2277175,23.2291071 10.4920448,23.1407375 10.6923056,22.9651277 C10.8890989,22.7934304 11.0009254,22.5516204 10.9999942,22.3029929 C10.9980618,22.0465578 10.884023,21.805626 10.6861914,21.6364441 L10.6220603,21.5775173 L2.3004885,13.3625337 L3.1118424,12.5598297 L10.6344189,5.1176521 C10.9156079,4.8478588 10.9903383,4.4453754 10.8227899,4.103105 C10.6559429,3.762277 10.2808955,3.5515803 9.8792195,3.5729091 C9.6220865,3.5914067 9.3890347,3.6979405 9.2037033,3.8892916 Z M28.1741603,4.1133776 C28.0127428,4.4530851 28.0887304,4.848873 28.3788524,5.1284413 L36.6995067,13.361444 L28.3779176,21.5774979 L28.3138034,21.6364179 C28.1159874,21.8056143 28.0019376,22.0466086 28.0000061,22.2989832 C27.9990494,22.5517245 28.1108789,22.7935699 28.3100246,22.9673471 C28.5079252,23.1409235 28.7722466,23.2292993 29.0470261,23.2121945 C29.3146215,23.1963487 29.5658293,23.0757383 29.7387684,22.8789415 L29.7962776,22.8179437 L38.735121,13.9752048 C39.0879374,13.6244465 39.0879374,13.0804648 38.7372495,12.7318174 L29.7784414,3.8689489 C29.6059829,3.6910223 29.3646097,3.5843351 29.1085358,3.5720994 C28.7020021,3.5602997 28.3354453,3.7748626 28.1741603,4.1133776 Z" id="Shape"></path>
        </g>
    </g>
</svg>