<svg id="Слой_1" data-name="Слой 1" xmlns="http://www.w3.org/2000/svg" width="39" height="40.65" viewBox="0 0 39 40.65"><title>design</title><g id="Page-1"><g id="design"><g id="Group-4"><path id="Combined-Shape" d="M37,4.11a2,2,0,0,0,2-2.05,2,2,0,0,0-3.9-.67H21.47V0h-4V1.38H3.9A2,2,0,0,0,2,0,2,2,0,0,0,0,2.05,2,2,0,0,0,2,4.11,2,2,0,0,0,3.9,2.72h8.5A18.72,18.72,0,0,0,1.31,17.93H0V22H4V17.94H2.87A16.92,16.92,0,0,1,17.49,3V4.15h4V3A16.92,16.92,0,0,1,36.09,17.94H35V22h4V17.94H37.65A18.72,18.72,0,0,0,26.56,2.72H35.1A2,2,0,0,0,37,4.11h0Z" transform="translate(0 0)" fill="#242437"/><path id="Fill-1" d="M13,36.71V39H26.35V36.71H13Zm13.74-1.6a1.25,1.25,0,0,1,1.13,1.36v2.82a1.25,1.25,0,0,1-1.13,1.36H12.61a1.25,1.25,0,0,1-1.13-1.36V36.47a1.25,1.25,0,0,1,1.13-1.36H26.78Z" transform="translate(0 0)" fill="#242437"/><path id="Fill-2" d="M29.39,24.26L27.8,32.74A1.85,1.85,0,0,1,26,34.29H12.71a1.91,1.91,0,0,1-1.81-1.57L9.32,24.29A4.78,4.78,0,0,1,9.81,21L16.54,8.41A3.77,3.77,0,0,1,18,7.09l0.6-.29a0.5,0.5,0,0,1,.71.45V20l-0.58.24a2.13,2.13,0,0,0-1.26,1.94,1.87,1.87,0,1,0,3.72,0,2,2,0,0,0-1.24-1.93L19.35,20V7.23a0.5,0.5,0,0,1,.7-0.46L20.66,7A3.35,3.35,0,0,1,22.18,8.5l6.71,12.44A4.76,4.76,0,0,1,29.39,24.26ZM17.46,10.62l-6,11.27a2.87,2.87,0,0,0-.29,2l1.58,8.42c0,0.05,0,.07,0,0.07H26s0.53-2.84,1.6-8.52a2.85,2.85,0,0,0-.31-2L21.2,10.61v8.14A4,4,0,0,1,23,22.16a3.82,3.82,0,0,1-3.71,3.93,3.82,3.82,0,0,1-3.71-3.93,4.07,4.07,0,0,1,1.84-3.4V10.62Z" transform="translate(0 0)" fill="#242437"/></g></g></g></svg>