<svg id="Слой_1" data-name="Слой 1" xmlns="http://www.w3.org/2000/svg" width="27" height="27" viewBox="0 0 27 27"><title>dribbble</title><g id="Page-1"><g id="Портфолио"><g id="social"><g id="dribbble"><path id="Shape" d="M13.5,0A13.5,13.5,0,1,0,27,13.5,13.5,13.5,0,0,0,13.5,0ZM24.42,12.53a35,35,0,0,0-7.23.48q-0.42-1-.85-1.92l0.53-.26a16,16,0,0,0,5.24-4.11A10.85,10.85,0,0,1,24.42,12.53Zm-4.1-7.62a13.59,13.59,0,0,1-5.1,3.91C15,8.38,14.74,8,14.51,7.55A49.45,49.45,0,0,0,11.4,2.74a11.08,11.08,0,0,1,2.1-.2A10.88,10.88,0,0,1,20.31,4.91ZM5.75,5.75a11,11,0,0,1,3.1-2.18,45.93,45.93,0,0,1,3.49,5.3l0.48,0.87a25.32,25.32,0,0,1-3.41.79,32.67,32.67,0,0,1-6.56.37A10.89,10.89,0,0,1,5.75,5.75ZM2.54,13.5s0-.05,0-0.08c0.47,0,1.06,0,1.76,0A34.76,34.76,0,0,0,9.75,13,27.16,27.16,0,0,0,14,12q0.35,0.74.69,1.54a22.59,22.59,0,0,0-4.61,1.77,15.91,15.91,0,0,0-5.46,4.56A10.88,10.88,0,0,1,2.54,13.5Zm3.81,8.31c1.93-2.82,5-4.79,9.26-5.87a40,40,0,0,1,2,7.73A11,11,0,0,1,6.35,21.81Zm14.9-.56A11.11,11.11,0,0,1,20,22.36a42.86,42.86,0,0,0-1.84-6.93,32.88,32.88,0,0,1,6.22-.36A10.88,10.88,0,0,1,21.25,21.25Z" fill="#191926"/></g></g></g></g></svg>