<?xml version="1.0" encoding="utf-8"?>
<!-- Generator: Adobe Illustrator 22.0.1, SVG Export Plug-In . SVG Version: 6.00 Build 0)  -->
<svg version="1.1" id="Слой_1" xmlns="http://www.w3.org/2000/svg" xmlns:xlink="http://www.w3.org/1999/xlink" x="0px" y="0px"
	 viewBox="0 0 562 1124" style="enable-background:new 0 0 562 1124;" xml:space="preserve">
<style type="text/css">
	.st0{opacity:0.2;}
	.st1{fill:#9DD97A;}
</style>
<title>7201CD2A-B851-4A8C-8BE5-D0107D079540</title>
<desc>Created with sketchtool.</desc>
<g id="Design" class="st0">
	<g id="_x31_.-Case---bamboobar" transform="translate(-647.000000, -8876.000000)">
		<g id="_x36_" transform="translate(19.000000, 8104.000000)">
			<g id="Oval-Copy">
				<path class="st1" d="M628,1896v-200c199.6,0,362-162.4,362-362S827.6,972,628,972V772c75.8,0,149.4,14.9,218.8,44.2
					c66.9,28.3,127,68.8,178.6,120.4c51.6,51.6,92.1,111.7,120.4,178.6c29.3,69.4,44.2,143,44.2,218.8c0,75.8-14.9,149.4-44.2,218.8
					c-28.3,66.9-68.8,127-120.4,178.6c-51.6,51.6-111.7,92.1-178.6,120.4C777.4,1881.1,703.8,1896,628,1896z"/>
			</g>
		</g>
	</g>
</g>
</svg>
