<?xml version="1.0" encoding="UTF-8"?>
<svg width="656px" height="126px" viewBox="0 0 656 126" version="1.1" xmlns="http://www.w3.org/2000/svg" xmlns:xlink="http://www.w3.org/1999/xlink">
    <!-- Generator: Sketch 52.2 (67145) - http://www.bohemiancoding.com/sketch -->
    <title>Path</title>
    <desc>Created with Sketch.</desc>
    <g id="Design" stroke="none" stroke-width="1" fill="none" fill-rule="evenodd" opacity="0.381184896">
        <g id="1.-Case---bamboobar" transform="translate(-455.000000, -3340.000000)" fill="#4B4B90">
            <g id="4" transform="translate(-286.000000, 3340.000000)">
                <g id="round">
                    <path d="M1360.59109,56.5254846 C1330.99592,56.5254846 1317.14728,69.7416224 1299.61383,86.4702943 C1280.19711,105.00089 1258.1876,126 1214.97445,126 C1171.76714,126 1149.76347,105.00089 1130.34675,86.4702943 C1112.81623,69.7416224 1098.96758,56.5254846 1069.37533,56.5254846 C1039.78016,56.5254846 1025.93152,69.7416224 1008.39807,86.4702943 C988.981352,105.00089 966.971843,126 923.761612,126 C880.548462,126 858.538953,105.00089 839.119313,86.4702943 C821.585869,69.7416224 807.734302,56.5254846 778.139134,56.5254846 C728.620289,56.5254846 728.620289,0 778.139134,0 C821.348804,0 843.358874,20.9991098 862.778513,39.5266619 C880.311957,56.2583776 894.163524,69.4745154 923.761612,69.4745154 C953.356781,69.4745154 967.205428,56.2583776 984.738872,39.5266619 C1004.15559,20.9991098 1026.1651,0 1069.37533,0 C1112.58264,0 1134.58923,20.9991098 1154.00595,39.5297057 C1171.53648,56.2583776 1185.3822,69.4745154 1214.97445,69.4745154 C1244.57254,69.4745154 1258.42119,56.2583776 1275.95463,39.5266619 C1295.37135,20.9991098 1317.38086,1.02589505e-15 1360.59109,0 C1410.62029,0 1407.62029,56.5254846 1360.59109,56.5254846 Z" id="Path"></path>
                </g>
            </g>
        </g>
    </g>
</svg>