<?xml version="1.0" encoding="UTF-8"?>
<svg width="38px" height="16px" viewBox="0 0 38 16" version="1.1" xmlns="http://www.w3.org/2000/svg" xmlns:xlink="http://www.w3.org/1999/xlink">
    <!-- Generator: Sketch 51 (57462) - http://www.bohemiancoding.com/sketch -->
    <title>prototype</title>
    <desc>Created with Sketch.</desc>
    <defs></defs>
    <g id="Page-1" stroke="none" stroke-width="1" fill="none" fill-rule="evenodd">
        <g id="prototype" fill="#242437" fill-rule="nonzero">
            <path d="M37.9986435,14.1139945 C37.9986435,15.1510686 37.1329237,16 36.0769357,16 L1.9217078,16 C0.8657197,16 0,15.1510686 0,14.1139426 L0.0013558,1.8860055 C0.0013558,0.8489314 0.8670756,0 1.9230637,0 L36.0782922,7.00000001e-07 C37.1342803,7.00000001e-07 38,0.8489321 38,1.8860062 L38,2.3612538 L37.9986435,14.1139945 Z M36.0692775,1.89099 L33.1989716,1.89099 L33.1989716,6.5885263 C33.198917,7.1111683 32.7677142,7.5340421 32.2363078,7.5339888 C31.7049433,7.5339354 31.2737426,7.1110968 31.2737426,6.5884775 L31.2737426,1.89099 L28.5924536,1.89099 L28.5924536,4.7075378 C28.592399,5.2301798 28.1611962,5.6530536 27.6297898,5.6530003 C27.0984253,5.6529469 26.6672246,5.2301083 26.6672246,4.707489 L26.6672246,1.89099 L24.2764827,1.89099 L24.2764827,4.7075378 C24.2764282,5.2301607 23.8452334,5.6529936 23.313819,5.6530003 C22.7824544,5.6529469 22.3512538,5.2301083 22.3512538,4.707489 L22.3512538,1.89099 L19.9605119,1.89099 L19.9605119,6.5885263 C19.9604573,7.1111683 19.5292545,7.5340421 18.9978481,7.5339888 C18.4664835,7.5339354 18.0352829,7.1110968 18.0352829,6.5884775 L18.0352829,1.89099 L15.644541,1.89099 L15.644541,4.7075378 C15.6444864,5.2301798 15.2132836,5.6530536 14.6818772,5.6530003 C14.1505137,5.6529469 13.7193189,5.2301139 13.719312,4.707489 L13.719312,1.89099 L11.3285702,1.89099 L11.3285702,4.7075378 C11.3285156,5.2301798 10.8973128,5.6530536 10.3659064,5.6530003 C9.8345418,5.6529469 9.4033412,5.2301083 9.4033412,4.707489 L9.4033412,1.89099 L6.7220522,1.89099 L6.7220522,6.5885263 C6.7219976,7.1111683 6.2907948,7.5340421 5.7593884,7.5339888 C5.2280238,7.5339354 4.7968232,7.1110968 4.7968232,6.5884775 L4.7968232,1.8909899 L1.926517,1.8909893 L1.926517,14.1103412 L36.074771,14.1103412 L36.074771,2.3612538 L36.0692775,1.89099 Z" id="Fill-1"></path>
        </g>
    </g>
</svg>