<?xml version="1.0" encoding="UTF-8"?>
<svg width="40px" height="40px" viewBox="0 0 40 40" version="1.1" xmlns="http://www.w3.org/2000/svg" xmlns:xlink="http://www.w3.org/1999/xlink">
    <!-- Generator: sketchtool 52.2 (67145) - http://www.bohemiancoding.com/sketch -->
    <title>A2DD5D7A-0774-4C4A-92F2-CD3B95D88813</title>
    <desc>Created with sketchtool.</desc>
    <g id="Symbols" stroke="none" stroke-width="1" fill="none" fill-rule="evenodd">
        <g id="ic-/-quaver" fill="#FFFFFF">
            <g id="Path">
                <path d="M13.5976927,7.005998 L13.5976927,11.0379873 L13.5976927,15.2515828 L13.5976927,27.110963 C12.5398422,26.4636788 11.3001216,26.0838054 9.96863156,26.0838054 C6.12099254,26.0838054 3,29.1994335 3,33.0406531 C3,36.8835388 6.12015827,40 9.96863156,40 C13.8146021,40 16.9339261,36.886871 16.9347603,33.0423192 L16.9347603,14.2944019 L34.6629323,9.20526491 L34.6629323,21.107964 C33.6042476,20.4606798 32.3653612,20.0808064 31.033037,20.0808064 C27.1845637,20.0808064 24.0635711,23.1956015 24.0635711,27.0343219 C24.0635711,30.8772076 27.1828951,33.9936688 31.033037,33.9936688 C34.6579267,33.9936688 37.6354254,31.2245918 37.9666293,27.6891036 L38,27.6891036 L38,8.24725092 L38,5.25991336 L38,0 L13.5976927,7.005998 Z"></path>
            </g>
        </g>
    </g>
</svg>