<?xml version="1.0" encoding="UTF-8"?>
<svg width="424px" height="106px" viewBox="0 0 424 106" version="1.1" xmlns="http://www.w3.org/2000/svg" xmlns:xlink="http://www.w3.org/1999/xlink">
    <!-- Generator: Sketch 52.2 (67145) - http://www.bohemiancoding.com/sketch -->
    <title>Path</title>
    <desc>Created with Sketch.</desc>
    <g id="Design" stroke="none" stroke-width="1" fill="none" fill-rule="evenodd" opacity="0.222609747">
        <g id="1.-Case---bamboobar" transform="translate(-1016.000000, -3261.000000)" fill="#9DD97A">
            <g id="3" transform="translate(-70.000000, 1578.000000)">
                <path d="M2122.83824,1789 C2079.62801,1789 2057.6185,1768.00089 2038.19886,1749.47334 C2020.66541,1732.74162 2006.81385,1719.52548 1977.21576,1719.52548 C1947.61767,1719.52548 1933.7661,1732.74162 1916.22974,1749.47029 C1896.81302,1768.00089 1874.80351,1789 1831.59036,1789 C1788.37721,1789 1766.37062,1768.00089 1746.95098,1749.47029 C1729.41754,1732.74162 1715.56889,1719.52548 1685.9708,1719.52548 C1656.37563,1719.52548 1642.52699,1732.74162 1624.99354,1749.47029 C1605.57682,1768.00089 1583.56731,1789 1540.35416,1789 C1497.14685,1789 1475.14318,1768.00089 1455.72646,1749.47029 C1438.19594,1732.74162 1424.34729,1719.52548 1394.75504,1719.52548 C1365.15987,1719.52548 1351.31123,1732.74162 1333.77778,1749.47029 C1314.36106,1768.00089 1292.35155,1789 1249.14132,1789 C1205.92817,1789 1183.91866,1768.00089 1164.49902,1749.47029 C1146.96558,1732.74162 1133.11401,1719.52548 1103.51884,1719.52548 C1093.84552,1719.52548 1086,1711.34682 1086,1701.26274 C1086,1691.17258 1093.84552,1683 1103.51884,1683 C1146.72908,1683 1168.73858,1703.99911 1188.15822,1722.52666 C1205.69167,1739.25838 1219.54324,1752.47452 1249.14132,1752.47452 C1278.73649,1752.47452 1292.58514,1739.25838 1310.11858,1722.52666 C1329.5353,1703.99911 1351.54481,1683 1394.75504,1683 C1437.96235,1683 1459.96894,1703.99911 1479.38566,1722.52971 C1496.91619,1739.25838 1510.76191,1752.47452 1540.35416,1752.47452 C1569.95225,1752.47452 1583.8009,1739.25838 1601.33434,1722.52666 C1620.75106,1703.99911 1642.76057,1683 1685.9708,1683 C1729.18395,1683 1751.19054,1703.99911 1770.61018,1722.52666 C1788.14363,1739.25838 1801.99519,1752.47452 1831.59036,1752.47452 C1861.19137,1752.47452 1875.04002,1739.25838 1892.57346,1722.52666 C1911.9931,1703.99911 1934.00261,1683 1977.21576,1683 C2020.42891,1683 2042.43842,1703.99911 2061.85806,1722.52666 C2079.3915,1739.25838 2093.24015,1752.47452 2122.83824,1752.47452 C2152.44217,1752.47452 2166.29373,1739.25838 2183.83302,1722.52666 C2203.25266,1703.99911 2225.26508,1683 2268.48116,1683 C2278.15448,1683 2286,1691.17258 2286,1701.26274 C2286,1711.34682 2278.15448,1719.52548 2268.48116,1719.52548 C2238.87723,1719.52548 2225.02566,1732.74162 2207.48638,1749.47334 C2188.06674,1768.00089 2166.05723,1789 2122.83824,1789 Z" id="Path"></path>
            </g>
        </g>
    </g>
</svg>