<?xml version="1.0" encoding="UTF-8"?>
<svg width="1200px" height="106px" viewBox="0 0 1200 106" version="1.1" xmlns="http://www.w3.org/2000/svg" xmlns:xlink="http://www.w3.org/1999/xlink">
    <!-- Generator: Sketch 52.2 (67145) - http://www.bohemiancoding.com/sketch -->
    <title>Path</title>
    <desc>Created with Sketch.</desc>
    <g id="Design" stroke="none" stroke-width="1" fill="none" fill-rule="evenodd" opacity="0.222609747">
        <g id="1.-Case---bamboobar" transform="translate(-140.000000, -3204.000000)" fill="#9DD97A">
            <g id="3" transform="translate(-70.000000, 1578.000000)">
                <path d="M1246.83824,1732 C1203.62801,1732 1181.6185,1711.00089 1162.19886,1692.47334 C1144.66541,1675.74162 1130.81385,1662.52548 1101.21576,1662.52548 C1071.61767,1662.52548 1057.7661,1675.74162 1040.22974,1692.47029 C1020.81302,1711.00089 998.803512,1732 955.590361,1732 C912.37721,1732 890.370621,1711.00089 870.950981,1692.47029 C853.417537,1675.74162 839.56889,1662.52548 809.970802,1662.52548 C780.375633,1662.52548 766.526986,1675.74162 748.993542,1692.47029 C729.576823,1711.00089 707.567314,1732 664.354163,1732 C621.146852,1732 599.143182,1711.00089 579.726463,1692.47029 C562.195939,1675.74162 548.347292,1662.52548 518.755043,1662.52548 C489.159874,1662.52548 475.311227,1675.74162 457.777783,1692.47029 C438.361063,1711.00089 416.351555,1732 373.141324,1732 C329.928173,1732 307.918664,1711.00089 288.499024,1692.47029 C270.96558,1675.74162 257.114014,1662.52548 227.518845,1662.52548 C217.845523,1662.52548 210,1654.34682 210,1644.26274 C210,1634.17258 217.845523,1626 227.518845,1626 C270.729076,1626 292.738585,1646.99911 312.158224,1665.52666 C329.691668,1682.25838 343.543235,1695.47452 373.141324,1695.47452 C402.736492,1695.47452 416.585139,1682.25838 434.118583,1665.52666 C453.535303,1646.99911 475.544812,1626 518.755043,1626 C561.962354,1626 583.968943,1646.99911 603.385663,1665.52971 C620.916187,1682.25838 634.761914,1695.47452 664.354163,1695.47452 C693.952251,1695.47452 707.800898,1682.25838 725.334342,1665.52666 C744.751062,1646.99911 766.760571,1626 809.970802,1626 C853.183953,1626 875.190542,1646.99911 894.610181,1665.52666 C912.143625,1682.25838 925.995192,1695.47452 955.590361,1695.47452 C985.191369,1695.47452 999.040016,1682.25838 1016.57346,1665.52666 C1035.9931,1646.99911 1058.00261,1626 1101.21576,1626 C1144.42891,1626 1166.43842,1646.99911 1185.85806,1665.52666 C1203.3915,1682.25838 1217.24015,1695.47452 1246.83824,1695.47452 C1276.44217,1695.47452 1290.29373,1682.25838 1307.83302,1665.52666 C1327.25266,1646.99911 1349.26508,1626 1392.48116,1626 C1402.15448,1626 1410,1634.17258 1410,1644.26274 C1410,1654.34682 1402.15448,1662.52548 1392.48116,1662.52548 C1362.87723,1662.52548 1349.02566,1675.74162 1331.48638,1692.47334 C1312.06674,1711.00089 1290.05723,1732 1246.83824,1732 Z" id="Path"></path>
            </g>
        </g>
    </g>
</svg>