<?xml version="1.0" encoding="UTF-8"?>
<svg width="80px" height="7px" viewBox="0 0 80 7" version="1.1" xmlns="http://www.w3.org/2000/svg" xmlns:xlink="http://www.w3.org/1999/xlink">
    <!-- Generator: sketchtool 52.2 (67145) - http://www.bohemiancoding.com/sketch -->
    <title>40E1608D-5890-4BC3-BCE4-AD324B0CB997</title>
    <desc>Created with sketchtool.</desc>
    <g id="Design" stroke="none" stroke-width="1" fill="none" fill-rule="evenodd">
        <g id="1.-Case---bamboobar" transform="translate(-681.000000, -783.000000)" fill="#FFFFFF">
            <g id="sea-waves" transform="translate(681.000000, 783.000000)">
                <path d="M69.1225492,7 C66.2418671,7 64.7745665,5.61326633 63.4799239,4.38974874 C62.3110276,3.28482412 61.3875898,2.4120603 59.4143839,2.4120603 C57.441178,2.4120603 56.5177403,3.28482412 55.3486493,4.38954774 C54.0542014,5.61326633 52.5869008,7 49.706024,7 C46.8251473,7 45.3580414,5.61326633 44.0633988,4.38954774 C42.8945025,3.28482412 41.9712594,2.4120603 39.9980535,2.4120603 C38.0250422,2.4120603 37.1017991,3.28482412 35.9329028,4.38954774 C34.6384548,5.61326633 33.1711542,7 30.2902775,7 C27.4097901,7 25.9428788,5.61326633 24.6484308,4.38954774 C23.4797292,3.28482412 22.5564861,2.4120603 20.5836695,2.4120603 C18.6106583,2.4120603 17.6874151,3.28482412 16.5185189,4.38954774 C15.2240709,5.61326633 13.7567703,7 10.8760882,7 C7.99521152,7 6.52791093,5.61326633 5.23326829,4.38954774 C4.06437202,3.28482412 3.14093424,2.4120603 1.16792299,2.4120603 C0.523034848,2.4120603 0,1.8719598 0,1.20603015 C0,0.539698492 0.523034848,0 1.16792299,0 C4.04860506,0 5.51590565,1.38673367 6.81054829,2.61025126 C7.97944456,3.71517588 8.90288234,4.5879397 10.8760882,4.5879397 C12.8490995,4.5879397 13.7723426,3.71517588 14.9412389,2.61025126 C16.2356869,1.38673367 17.7029874,0 20.5836695,0 C23.4641569,0 24.9312629,1.38673367 26.2257109,2.61045226 C27.3944125,3.71517588 28.3174609,4.5879397 30.2902775,4.5879397 C32.2634834,4.5879397 33.1867266,3.71517588 34.3556228,2.61025126 C35.6500708,1.38673367 37.1173714,1.14258128e-14 39.9980535,1.14258128e-14 C42.8789302,1.14258128e-14 44.3460361,1.38673367 45.6406788,2.61025126 C46.809575,3.71517588 47.7330128,4.5879397 49.706024,4.5879397 C51.6794246,4.5879397 52.6026677,3.71517588 53.771564,2.61025126 C55.0662066,1.38673367 56.5335072,1.14258128e-14 59.4143839,1.14258128e-14 C62.2952607,1.14258128e-14 63.7625613,1.38673367 65.0572039,2.61025126 C66.2261002,3.71517588 67.1493433,4.5879397 69.1225492,4.5879397 C71.0961444,4.5879397 72.0195822,3.71517588 73.1888677,2.61025126 C74.4835104,1.38673367 75.9510056,1.14258128e-14 78.832077,1.14258128e-14 C79.4769652,1.14258128e-14 80,0.539698492 80,1.20603015 C80,1.8719598 79.4769652,2.4120603 78.832077,2.4120603 C76.8584818,2.4120603 75.935044,3.28482412 74.7657584,4.38974874 C73.4711158,5.61326633 72.0038152,7 69.1225492,7 Z" id="Path"></path>
            </g>
        </g>
    </g>
</svg>