<?xml version="1.0" encoding="UTF-8"?>
<svg width="421px" height="421px" viewBox="0 0 421 421" version="1.1" xmlns="http://www.w3.org/2000/svg" xmlns:xlink="http://www.w3.org/1999/xlink">
    <!-- Generator: Sketch 51 (57462) - http://www.bohemiancoding.com/sketch -->
    <title>Group 5</title>
    <desc>Created with Sketch.</desc>
    <defs>
        <linearGradient x1="50%" y1="88.5895404%" x2="89.3299326%" y2="44.0384806%" id="linearGradient-1">
            <stop stop-color="#3AC5E3" offset="0%"></stop>
            <stop stop-color="#87E7C2" offset="100%"></stop>
        </linearGradient>
    </defs>
    <g id="City-Voice" stroke="none" stroke-width="1" fill="none" fill-rule="evenodd">
        <g id="Desktop-HD" transform="translate(-515.000000, -8797.000000)">
            <g id="Group-2" transform="translate(79.000000, 5279.000000)" fill="url(#linearGradient-1)">
                <g id="Group-5" transform="translate(436.000000, 3518.000000)">
                    <path d="M210.249206,420.498413 C94.131776,420.498413 0,326.366637 0,210.249206 C0,94.131776 94.131776,0 210.249206,0 C326.366637,0 420.498413,94.131776 420.498413,210.249206 C420.498413,326.366637 326.366637,420.498413 210.249206,420.498413 Z M209.934805,372.86961 C299.921213,372.86961 372.86961,299.921213 372.86961,209.934805 C372.86961,119.948397 299.921213,47 209.934805,47 C119.948397,47 47,119.948397 47,209.934805 C47,299.921213 119.948397,372.86961 209.934805,372.86961 Z" id="Combined-Shape"></path>
                </g>
            </g>
        </g>
    </g>
</svg>