<svg id="Слой_1" data-name="Слой 1" xmlns="http://www.w3.org/2000/svg" xmlns:xlink="http://www.w3.org/1999/xlink" width="1440" height="1307" viewBox="0 0 1440 1307"><defs><linearGradient id="Безымянный_градиент" x1="424.97" y1="1120.75" x2="424.97" y2="1120.37" gradientTransform="matrix(46.07, 0, 0, -902.46, -18882.12, 1011863.82)" gradientUnits="userSpaceOnUse"><stop offset="0" stop-color="#f0f2ef"/><stop offset="1" stop-color="#dedfdd"/></linearGradient><linearGradient id="Безымянный_градиент_2" x1="424.97" y1="1120.73" x2="424.97" y2="1120.27" gradientTransform="matrix(46.07, 0, 0, -902.46, -18836.05, 1011863.82)" gradientUnits="userSpaceOnUse"><stop offset="0" stop-color="#d4cbdc"/><stop offset="1" stop-color="#a79bb2"/></linearGradient><linearGradient id="Безымянный_градиент_3" x1="424.97" y1="1120.73" x2="424.97" y2="1120.27" gradientTransform="matrix(46.07, 0, 0, -880.04, -18927.93, 986763.63)" xlink:href="#Безымянный_градиент_2"/><linearGradient id="Безымянный_градиент_4" x1="424.97" y1="1120.73" x2="424.97" y2="1120.27" gradientTransform="matrix(46.07, 0, 0, -880.04, -18881.86, 986763.63)" xlink:href="#Безымянный_градиент_2"/><linearGradient id="Безымянный_градиент_5" x1="424.97" y1="1120.75" x2="424.97" y2="1120.37" gradientTransform="matrix(46.07, 0, 0, -857.24, -18973.35, 961226.67)" xlink:href="#Безымянный_градиент"/><linearGradient id="Безымянный_градиент_6" x1="424.97" y1="1120.73" x2="424.97" y2="1120.27" gradientTransform="matrix(46.07, 0, 0, -857.24, -18927.29, 961226.67)" xlink:href="#Безымянный_градиент_2"/><linearGradient id="Безымянный_градиент_7" x1="424.97" y1="1120.74" x2="424.97" y2="1120.36" gradientTransform="matrix(46.07, 0, 0, -827.7, -19019.16, 928143.23)" xlink:href="#Безымянный_градиент"/><linearGradient id="Безымянный_градиент_8" x1="424.97" y1="1120.72" x2="424.97" y2="1120.26" gradientTransform="matrix(46.07, 0, 0, -827.7, -18973.1, 928143.23)" xlink:href="#Безымянный_градиент_2"/><linearGradient id="Безымянный_градиент_9" x1="424.97" y1="1120.74" x2="424.97" y2="1120.36" gradientTransform="matrix(46.11, 0, 0, -778.05, -19035.67, 872544.35)" xlink:href="#Безымянный_градиент"/><linearGradient id="Безымянный_градиент_10" x1="424.97" y1="1120.72" x2="424.97" y2="1120.26" gradientTransform="matrix(46.11, 0, 0, -778.05, -18989.56, 872544.35)" xlink:href="#Безымянный_градиент_2"/><linearGradient id="Безымянный_градиент_11" x1="424.97" y1="1120.73" x2="424.97" y2="1120.35" gradientTransform="matrix(46.11, 0, 0, -755.37, -18990.36, 847143.07)" xlink:href="#Безымянный_градиент"/><linearGradient id="Безымянный_градиент_12" x1="424.97" y1="1120.71" x2="424.97" y2="1120.25" gradientTransform="matrix(46.11, 0, 0, -755.37, -18944.25, 847143.07)" xlink:href="#Безымянный_градиент_2"/><linearGradient id="Безымянный_градиент_13" x1="424.97" y1="1120.73" x2="424.97" y2="1120.28" gradientTransform="matrix(46.07, 0, 0, -908.93, -18790.37, 1019117.48)" xlink:href="#Безымянный_градиент_2"/><linearGradient id="Безымянный_градиент_14" x1="424.97" y1="1120.73" x2="424.97" y2="1120.28" gradientTransform="matrix(46.07, 0, 0, -908.93, -18744.3, 1019117.48)" xlink:href="#Безымянный_градиент_2"/><linearGradient id="Безымянный_градиент_15" x1="424.97" y1="1120.73" x2="424.97" y2="1120.27" gradientTransform="matrix(46.07, 0, 0, -886.25, -18745.06, 993716.19)" xlink:href="#Безымянный_градиент_2"/><linearGradient id="Безымянный_градиент_16" x1="424.97" y1="1120.73" x2="424.97" y2="1120.27" gradientTransform="matrix(46.07, 0, 0, -886.25, -18698.99, 993716.19)" xlink:href="#Безымянный_градиент_2"/><linearGradient id="Безымянный_градиент_17" x1="424.97" y1="1120.72" x2="424.97" y2="1120.26" gradientTransform="matrix(46.07, 0, 0, -828.48, -18835.54, 929013.9)" xlink:href="#Безымянный_градиент_2"/><linearGradient id="Безымянный_градиент_18" x1="424.97" y1="1120.72" x2="424.97" y2="1120.26" gradientTransform="matrix(46.07, 0, 0, -828.48, -18789.47, 929013.9)" xlink:href="#Безымянный_градиент_2"/><linearGradient id="Безымянный_градиент_19" x1="424.97" y1="1120.72" x2="424.97" y2="1120.26" gradientTransform="matrix(46.07, 0, 0, -805.67, -18790.11, 903476.94)" xlink:href="#Безымянный_градиент_2"/><linearGradient id="Безымянный_градиент_20" x1="424.97" y1="1120.72" x2="424.97" y2="1120.26" gradientTransform="matrix(46.07, 0, 0, -805.41, -18744.16, 903180.9)" xlink:href="#Безымянный_градиент_2"/><linearGradient id="Безымянный_градиент_21" x1="424.97" y1="1120.74" x2="424.97" y2="1120.36" gradientTransform="matrix(46.07, 0, 0, -782.87, -18836.19, 877939.97)" xlink:href="#Безымянный_градиент"/><linearGradient id="Безымянный_градиент_22" x1="424.97" y1="1120.72" x2="424.97" y2="1120.26" gradientTransform="matrix(46.07, 0, 0, -782.87, -18790.12, 877939.97)" xlink:href="#Безымянный_градиент_2"/><linearGradient id="Безымянный_градиент_23" x1="424.97" y1="1120.73" x2="424.97" y2="1120.35" gradientTransform="matrix(46.07, 0, 0, -753.06, -18881.99, 844555.37)" xlink:href="#Безымянный_градиент"/><linearGradient id="Безымянный_градиент_24" x1="424.97" y1="1120.71" x2="424.97" y2="1120.25" gradientTransform="matrix(46.07, 0, 0, -753.32, -18835.92, 844851.41)" xlink:href="#Безымянный_градиент_2"/></defs><title>figure</title><g id="Page-1"><g id="Интро"><rect width="1440" height="1024" fill="none"/><g id="G"><g id="Rectangle_Isometric-Copy-2" data-name="Rectangle Isometric-Copy-2"><polygon id="Rectangle_Left_Isometric" data-name="Rectangle Left Isometric" points="719.11 1307 673.04 1307 673.04 404.54 719.11 427.61 719.11 1307" fill="url(#Безымянный_градиент)"/><polygon id="Rectangle_Right_Isometric" data-name="Rectangle Right Isometric" points="719.11 1307 765.18 1307 765.18 404.54 719.11 427.61 719.11 1307" fill="url(#Безымянный_градиент_2)"/><polygon id="Rectangle_Top_Isometric" data-name="Rectangle Top Isometric" points="673.04 404.54 719.11 381.48 765.18 404.54 719.11 427.61 673.04 404.54" fill="#fafdf9"/></g><g id="Rectangle_Isometric-Copy-3" data-name="Rectangle Isometric-Copy-3"><polygon id="Rectangle_Left_Isometric-2" data-name="Rectangle Left Isometric" points="673.3 1307 627.23 1307 627.23 426.96 673.3 450.02 673.3 1307" fill="url(#Безымянный_градиент_3)"/><polygon id="Rectangle_Right_Isometric-2" data-name="Rectangle Right Isometric" points="673.3 1307 719.37 1307 719.37 426.96 673.3 450.02 673.3 1307" fill="url(#Безымянный_градиент_4)"/><polygon id="Rectangle_Top_Isometric-2" data-name="Rectangle Top Isometric" points="627.23 426.96 673.3 403.89 719.37 426.96 673.3 450.02 627.23 426.96" fill="#fafdf9"/></g><g id="Rectangle_Isometric-Copy-4" data-name="Rectangle Isometric-Copy-4"><polygon id="Rectangle_Left_Isometric-3" data-name="Rectangle Left Isometric" points="627.88 1307 581.81 1307 581.81 449.76 627.88 472.82 627.88 1307" fill="url(#Безымянный_градиент_5)"/><polygon id="Rectangle_Right_Isometric-3" data-name="Rectangle Right Isometric" points="627.88 1307 673.95 1307 673.95 449.76 627.88 472.82 627.88 1307" fill="url(#Безымянный_градиент_6)"/><polygon id="Rectangle_Top_Isometric-3" data-name="Rectangle Top Isometric" points="581.81 449.76 627.88 426.69 673.95 449.76 627.88 472.82 581.81 449.76" fill="#fafdf9"/></g><g id="Rectangle_Isometric-Copy-5" data-name="Rectangle Isometric-Copy-5"><polygon id="Rectangle_Left_Isometric-4" data-name="Rectangle Left Isometric" points="582.07 1307 536 1307 536 479.3 582.07 502.37 582.07 1307" fill="url(#Безымянный_градиент_7)"/><polygon id="Rectangle_Right_Isometric-4" data-name="Rectangle Right Isometric" points="582.07 1307 628.14 1307 628.14 479.3 582.07 502.37 582.07 1307" fill="url(#Безымянный_градиент_8)"/><polygon id="Rectangle_Top_Isometric-4" data-name="Rectangle Top Isometric" points="536 479.3 582.07 456.24 628.14 479.3 582.07 502.37 536 479.3" fill="#fafdf9"/></g><g id="Rectangle_Isometric-Copy-7" data-name="Rectangle Isometric-Copy-7"><polygon id="Rectangle_Left_Isometric-5" data-name="Rectangle Left Isometric" points="582.11 1307 536 1307 536 528.95 582.11 552.03 582.11 1307" fill="url(#Безымянный_градиент_9)"/><polygon id="Rectangle_Right_Isometric-5" data-name="Rectangle Right Isometric" points="582.11 1307 628.22 1307 628.22 528.95 582.11 552.03 582.11 1307" fill="url(#Безымянный_градиент_10)"/><polygon id="Rectangle_Top_Isometric-5" data-name="Rectangle Top Isometric" points="536 528.95 582.11 505.86 628.22 528.95 582.11 552.03 536 528.95" fill="#fafdf9"/></g><g id="Rectangle_Isometric-Copy-12" data-name="Rectangle Isometric-Copy-12"><polygon id="Rectangle_Left_Isometric-6" data-name="Rectangle Left Isometric" points="627.42 1307 581.31 1307 581.31 551.63 627.42 574.72 627.42 1307" fill="url(#Безымянный_градиент_11)"/><polygon id="Rectangle_Right_Isometric-6" data-name="Rectangle Right Isometric" points="627.42 1307 673.52 1307 673.52 551.63 627.42 574.72 627.42 1307" fill="url(#Безымянный_градиент_12)"/><polygon id="Rectangle_Top_Isometric-6" data-name="Rectangle Top Isometric" points="581.31 551.63 627.42 528.54 673.52 551.63 627.42 574.72 581.31 551.63" fill="#fafdf9"/></g><g id="_1" data-name="1"><polygon id="Rectangle_Left_Isometric-7" data-name="Rectangle Left Isometric" points="810.86 1307 764.79 1307 764.79 398.07 810.86 421.13 810.86 1307" fill="url(#Безымянный_градиент_13)"/><polygon id="Rectangle_Right_Isometric-7" data-name="Rectangle Right Isometric" points="810.86 1307 856.93 1307 856.93 398.07 810.86 421.13 810.86 1307" fill="url(#Безымянный_градиент_14)"/><polygon id="Rectangle_Top_Isometric-7" data-name="Rectangle Top Isometric" points="764.79 398.07 810.86 375 856.93 398.07 810.86 421.13 764.79 398.07" fill="#fafdf9"/></g><g id="_2" data-name="2"><polygon id="Rectangle_Left_Isometric-8" data-name="Rectangle Left Isometric" points="856.17 1307 810.1 1307 810.1 420.75 856.17 443.81 856.17 1307" fill="url(#Безымянный_градиент_15)"/><polygon id="Rectangle_Right_Isometric-8" data-name="Rectangle Right Isometric" points="856.17 1307 902.24 1307 902.24 420.75 856.17 443.81 856.17 1307" fill="url(#Безымянный_градиент_16)"/><polygon id="Rectangle_Top_Isometric-8" data-name="Rectangle Top Isometric" points="810.1 420.75 856.17 397.68 902.24 420.75 856.17 443.81 810.1 420.75" fill="#fafdf9"/></g><g id="Rectangle_Isometric-Copy-11" data-name="Rectangle Isometric-Copy-11"><polygon id="Rectangle_Left_Isometric-9" data-name="Rectangle Left Isometric" points="765.7 1307 719.63 1307 719.63 478.52 765.7 501.59 765.7 1307" fill="url(#Безымянный_градиент_17)"/><polygon id="Rectangle_Right_Isometric-9" data-name="Rectangle Right Isometric" points="765.7 1307 811.77 1307 811.77 478.52 765.7 501.59 765.7 1307" fill="url(#Безымянный_градиент_18)"/><polygon id="Rectangle_Top_Isometric-9" data-name="Rectangle Top Isometric" points="719.63 478.52 765.7 455.46 811.77 478.52 765.7 501.59 719.63 478.52" fill="#fafdf9"/></g><g id="Rectangle_Isometric-Copy-8" data-name="Rectangle Isometric-Copy-8"><polygon id="Rectangle_Left_Isometric-10" data-name="Rectangle Left Isometric" points="811.12 1307 765.05 1307 765.05 501.33 811.12 524.39 811.12 1307" fill="url(#Безымянный_градиент_19)"/><polygon id="Rectangle_Right_Isometric-10" data-name="Rectangle Right Isometric" points="811.01 1307 857.08 1307 857.08 501.59 811.01 524.66 811.01 1307" fill="url(#Безымянный_градиент_20)"/><polygon id="Rectangle_Top_Isometric-10" data-name="Rectangle Top Isometric" points="765.05 501.33 811.12 478.26 857.19 501.33 811.12 524.39 765.05 501.33" fill="#fafdf9"/></g><g id="Rectangle_Isometric-Copy-9" data-name="Rectangle Isometric-Copy-9"><polygon id="Rectangle_Left_Isometric-11" data-name="Rectangle Left Isometric" points="765.04 1307 718.98 1307 718.98 524.13 765.04 547.2 765.04 1307" fill="url(#Безымянный_градиент_21)"/><polygon id="Rectangle_Right_Isometric-11" data-name="Rectangle Right Isometric" points="765.04 1307 811.11 1307 811.11 524.13 765.04 547.2 765.04 1307" fill="url(#Безымянный_градиент_22)"/><polygon id="Rectangle_Top_Isometric-11" data-name="Rectangle Top Isometric" points="718.98 524.13 765.04 501.06 811.11 524.13 765.04 547.2 718.98 524.13" fill="#fafdf9"/></g><g id="Rectangle_Isometric-Copy-10" data-name="Rectangle Isometric-Copy-10"><polygon id="Rectangle_Left_Isometric-12" data-name="Rectangle Left Isometric" points="719.24 1307 673.17 1307 673.17 553.94 719.24 577.01 719.24 1307" fill="url(#Безымянный_градиент_23)"/><polygon id="Rectangle_Right_Isometric-12" data-name="Rectangle Right Isometric" points="719.24 1307 765.31 1307 765.31 553.68 719.24 576.74 719.24 1307" fill="url(#Безымянный_градиент_24)"/><polygon id="Rectangle_Top_Isometric-12" data-name="Rectangle Top Isometric" points="673.17 553.68 719.24 530.61 765.31 553.68 719.24 576.74 673.17 553.68" fill="#fafdf9"/></g></g></g></g></svg>