<?xml version="1.0" encoding="UTF-8"?>
<svg width="1072px" height="65px" viewBox="0 0 1072 65" version="1.1" xmlns="http://www.w3.org/2000/svg" xmlns:xlink="http://www.w3.org/1999/xlink">
    <!-- Generator: Sketch 51 (57462) - http://www.bohemiancoding.com/sketch -->
    <title>logo</title>
    <desc>Created with Sketch.</desc>
    <defs></defs>
    <g id="Page-1" stroke="none" stroke-width="1" fill="none" fill-rule="evenodd">
        <g id="logo" transform="translate(4.000000, 4.000000)" stroke="#574848" stroke-width="7">
            <g id="Y" transform="translate(1019.000000, 1.000000)">
                <polygon id="Shape" points="22.8461914 56.5 22.8461914 33.0624571 42.5463691 0.08691406 39.836018 0.08691406 23.664143 28.0800781 19.3163257 28.0800781 3.14445073 0.08691406 0.33999571 0.08691406 20.0024414 33.0640868 20.0024414 56.5"></polygon>
            </g>
            <g id="V" transform="translate(525.000000, 1.000000)">
                <polygon id="Shape" points="26.3068336 56.5 46.440402 0.08691406 43.431527 0.08691406 26.1170739 52.4257812 20.7939953 52.4257812 3.52348745 0.08691406 0.34084796 0.08691406 20.4744164 56.5"></polygon>
            </g>
            <g id="T" transform="translate(843.000000, 1.000000)">
                <polygon id="Shape" points="23.0024414 56.5 23.0024414 1.56835938 42.3823242 1.56835938 42.3823242 0.08691406 0.73486328 0.08691406 0.73486328 1.56835938 20.1586914 1.56835938 20.1586914 56.5"></polygon>
            </g>
            <g id="R" transform="translate(185.000000, 1.000000)">
                <path d="M35.6413609,56.5 L38.9662883,56.5 L25.59926,32.0834469 L29.5657705,30.7537644 C35.7615712,28.676763 39.4829102,23.1529006 39.4829102,15.9667969 C39.4829102,6.1041179 32.9356427,0.08691406 21.8012695,0.08691406 L0.73583984,0.08691406 L0.73583984,56.5 L3.57958984,56.5 L3.57958984,32.1103516 L22.721439,32.1103516 L35.6413609,56.5 Z M3.57958984,1.34863281 L20.6147461,1.34863281 C30.0944248,1.34863281 36.331543,7.1623435 36.331543,16.2304688 C36.331543,25.4557223 30.3740901,31.15625 20.878418,31.15625 L3.57958984,31.15625 L3.57958984,1.34863281 Z" id="Shape"></path>
            </g>
            <g id="G">
                <path d="M46.1814779,29.5255396 C46.1426284,29.5255396 40.2742282,29.5255396 28.5762772,29.5255396 L28.5762772,30.4149563 L43.6822629,30.4149563 L43.6822629,33.6776681 L43.6819604,34.7465078 C43.5356118,45.5532362 35.4915228,53.0809719 24.2978229,53.0809719 C11.1904657,53.0809719 3.00994753,42.7406746 3.00994753,26.9592492 C3.00994753,11.4155583 11.0038619,1.53394796 24.1358283,1.53394796 C32.3459264,1.53394796 38.8360593,5.79367353 41.9055069,13.0863513 L44.7573392,13.0863513 C41.7609598,5.07461151 34.0572563,0.0300417085 24.0953297,0.0300417085 C9.28266726,0.0300417085 0.186743644,10.1619143 0.186743644,27.0411811 C0.186743644,44.2588326 9.33591909,54.5848782 24.2168256,54.5848782 C37.3341976,54.5848782 45.1217269,47.5392164 46.0809331,34.988956 C46.1477938,34.1141502 46.2397521,29.5255396 46.1814779,29.5255396 Z" id="Shape"></path>
            </g>
            <g id="A" transform="translate(356.000000, 1.000000)">
                <path d="M44.2941151,56.5 L47.2139008,56.5 L26.8457666,0.08691406 L21.1259131,0.08691406 L0.75777885,56.5 L3.50178336,56.5 L9.3025646,39.3613281 L38.4933338,39.3613281 L44.2941151,56.5 Z M21.2585194,3.63378906 L26.5373791,3.63378906 L38.3631884,38.4511719 L9.4327101,38.4511719 L21.2585194,3.63378906 Z" id="Shape"></path>
            </g>
            <g id="I" transform="translate(706.000000, 1.000000)">
                <polygon id="Shape" points="3.73681641 56.5 3.73681641 0.08691406 0.89306641 0.08691406 0.89306641 56.5"></polygon>
            </g>
        </g>
    </g>
</svg>