<?xml version="1.0" encoding="UTF-8"?>
<svg width="1072px" height="67px" viewBox="0 0 1072 67" version="1.1" xmlns="http://www.w3.org/2000/svg" xmlns:xlink="http://www.w3.org/1999/xlink">
    <!-- Generator: Sketch 51 (57462) - http://www.bohemiancoding.com/sketch -->
    <title>logo</title>
    <desc>Created with Sketch.</desc>
    <defs></defs>
    <g id="Page-1" stroke="none" stroke-width="1" fill="none" fill-rule="evenodd">
        <g id="валере!" transform="translate(-182.000000, -293.000000)">
            <g id="logo" transform="translate(186.000000, 297.000000)" fill-rule="nonzero" stroke="#FFFFFF" stroke-width="7">
                <g id="Y" transform="translate(1019.000000, 2.000000)">
                    <polygon points="22.8461914 56.5 22.8461914 33.0624571 42.5463691 0.08691406 39.836018 0.08691406 23.664143 28.0800781 19.3163257 28.0800781 3.14445073 0.08691406 0.33999571 0.08691406 20.0024414 33.0640868 20.0024414 56.5"></polygon>
                </g>
                <g id="V" transform="translate(525.000000, 2.000000)">
                    <polygon points="26.3068336 56.5 46.440402 0.08691406 43.431527 0.08691406 26.1170739 52.4257812 20.7939953 52.4257812 3.52348745 0.08691406 0.34084796 0.08691406 20.4744164 56.5"></polygon>
                </g>
                <g id="T" transform="translate(843.000000, 2.000000)">
                    <polygon points="23.0024414 56.5 23.0024414 1.56835938 42.3823242 1.56835938 42.3823242 0.08691406 0.73486328 0.08691406 0.73486328 1.56835938 20.1586914 1.56835938 20.1586914 56.5"></polygon>
                </g>
                <g id="R" transform="translate(185.000000, 2.000000)">
                    <path d="M35.6413609,56.5 L38.9662883,56.5 L25.59926,32.0834469 L29.5657705,30.7537644 C35.7615712,28.676763 39.4829102,23.1529006 39.4829102,15.9667969 C39.4829102,6.1041179 32.9356427,0.08691406 21.8012695,0.08691406 L0.73583984,0.08691406 L0.73583984,56.5 L3.57958984,56.5 L3.57958984,32.1103516 L22.721439,32.1103516 L35.6413609,56.5 Z M3.57958984,1.34863281 L20.6147461,1.34863281 C30.0944248,1.34863281 36.331543,7.1623435 36.331543,16.2304688 C36.331543,25.4557223 30.3740901,31.15625 20.878418,31.15625 L3.57958984,31.15625 L3.57958984,1.34863281 Z"></path>
                </g>
                <g id="G">
                    <path d="M50.1118164,31.6728516 L31.0083008,31.6728516 L31.0083008,32.6269531 L47.3999023,32.6269531 L47.3999023,36.1269531 L47.399574,37.2735266 C47.2407703,48.8661988 38.5120779,56.9414062 26.3657227,56.9414062 C12.1428458,56.9414062 3.26611328,45.8490873 3.26611328,28.9199219 C3.26611328,12.2457807 11.9403608,1.64550781 26.1899414,1.64550781 C35.0987712,1.64550781 42.1412558,6.2150316 45.471933,14.0380859 L48.5664745,14.0380859 C45.315084,5.44367416 36.9557462,0.03222656 26.1459961,0.03222656 C10.0726815,0.03222656 0.20263672,10.9009626 0.20263672,29.0078125 C0.20263672,47.4776568 10.1304654,58.5546875 26.277832,58.5546875 C41.5037279,58.5546875 50.1118164,49.9062328 50.1118164,34.6328125 L50.1118164,31.6728516 Z"></path>
                </g>
                <g id="A" transform="translate(356.000000, 2.000000)">
                    <path d="M44.2941151,56.5 L47.2139008,56.5 L26.8457666,0.08691406 L21.1259131,0.08691406 L0.75777885,56.5 L3.50178336,56.5 L9.3025646,39.3613281 L38.4933338,39.3613281 L44.2941151,56.5 Z M21.2585194,3.63378906 L26.5373791,3.63378906 L38.3631884,38.4511719 L9.4327101,38.4511719 L21.2585194,3.63378906 Z"></path>
                </g>
                <g id="I" transform="translate(706.000000, 2.000000)">
                    <polygon points="3.73681641 56.5 3.73681641 0.08691406 0.89306641 0.08691406 0.89306641 56.5"></polygon>
                </g>
            </g>
        </g>
    </g>
</svg>