<?xml version="1.0" encoding="UTF-8"?>
<svg width="342px" height="46px" viewBox="0 0 342 46" version="1.1" xmlns="http://www.w3.org/2000/svg" xmlns:xlink="http://www.w3.org/1999/xlink">
    <!-- Generator: Sketch 51 (57462) - http://www.bohemiancoding.com/sketch -->
    <title>logo-city</title>
    <desc>Created with Sketch.</desc>
    <defs></defs>
    <g id="Page-1" stroke="none" stroke-width="1" fill="none" fill-rule="evenodd">
        <g id="logo-city" fill="#FFFFFF" fill-rule="nonzero">
            <path d="M318.923536,44.3730397 L318.923536,1.00799304 L342,1.00799304 L342,5.71354175 L324.080903,5.71354175 L324.080903,18.1509901 L342,18.1509901 L342,22.9253195 L324.080903,22.9253195 L324.080903,39.5323013 L342,39.5323013 L342,44.3730397 L318.923536,44.3730397 Z M306.908834,11.3630463 C304.80662,9.14308985 302.634971,7.46152028 300.259805,6.38711828 C297.882244,5.31034454 295.23652,4.77432941 292.387278,4.77432941 C290.079153,4.77432941 287.771027,5.24393558 285.599378,6.11911072 C283.427729,7.06069481 281.459598,8.40310437 279.8985,10.018265 C278.200927,11.7662435 276.979823,13.6494117 276.096319,15.7982157 C275.28225,17.8829825 274.875215,20.2357568 274.875215,22.7901298 C274.875215,24.8084876 275.078733,26.6916558 275.622243,28.3708537 C276.096319,30.1188322 276.843347,31.6675839 277.860933,33.0764024 C279.625548,35.5643664 281.730156,37.4475346 284.308839,38.7923159 C286.887523,40.0706882 289.672118,40.741893 292.588401,40.741893 C295.372996,40.741893 298.018721,40.2035061 300.393887,39.0626952 C302.769053,37.9171407 304.943096,36.1691622 306.908834,33.9515775 L306.908834,40.741893 C304.739579,42.3546819 302.431454,43.4978646 299.919811,44.3066308 C297.408169,45.1130252 294.829485,45.5138507 292.183761,45.5138507 C289.875635,45.5138507 287.56751,45.1794341 285.395861,44.5082294 C283.224212,43.7682439 281.186645,42.8266598 279.218513,41.4818785 C276.096319,39.3307027 273.654112,36.6411401 271.956538,33.4131906 C270.258965,30.1876129 269.444896,26.6916558 269.444896,22.8589105 C269.444896,19.5645521 269.988406,16.5405729 271.075428,13.7846014 C272.229491,11.0238863 273.92467,8.53829403 276.232795,6.32070933 C278.471485,4.16953358 280.983128,2.62078192 283.698288,1.54637992 C286.413447,0.469606172 289.332125,0 292.52136,0 C295.100043,0 297.544645,0.336788264 299.919811,1.1431827 C302.294978,1.88316818 304.603103,3.02397913 306.908834,4.63913976 L306.908834,11.3630463 Z M252.545779,44.3730397 L257.772582,44.3730397 L257.772582,1.00799304 L252.545779,1.00799304 L252.545779,44.3730397 Z M240.940506,22.7901298 C240.940506,25.8828896 240.329954,28.7764226 239.175892,31.5323942 C238.021829,34.2883658 236.324255,36.7099208 234.152606,38.8610966 C231.913916,40.9434916 229.335233,42.6250612 226.483597,43.7682439 C223.634355,44.9114266 220.646243,45.5138507 217.524048,45.5138507 C214.471289,45.5138507 211.483177,44.9114266 208.633935,43.7682439 C205.782299,42.6250612 203.203615,40.9434916 201.031966,38.8610966 C198.793276,36.7099208 197.095703,34.2219568 195.874599,31.4659852 C194.720537,28.7764226 194.177026,25.8164807 194.177026,22.7901298 C194.177026,19.630961 194.720537,16.7421715 195.874599,13.9838282 C197.095703,11.2278566 198.793276,8.80867334 201.031966,6.65749759 C203.203615,4.5039501 205.715258,2.89116123 208.566894,1.74797853 C211.483177,0.604795827 214.471289,0 217.524048,0 C220.646243,0 223.634355,0.604795827 226.550638,1.74797853 C229.402274,2.89116123 231.913916,4.5039501 234.152606,6.65749759 C236.324255,8.74226439 238.021829,11.2278566 239.175892,13.9838282 C240.329954,16.7421715 240.940506,19.630961 240.940506,22.7901298 Z M217.524048,40.6731123 C219.901609,40.6731123 222.20734,40.2035061 224.378989,39.3307027 C226.550638,38.3891186 228.451729,37.1107463 230.216343,35.3627678 C231.913916,33.6811982 233.202061,31.7339928 234.085565,29.5828171 C235.036111,27.4292696 235.443145,25.1452759 235.443145,22.7901298 C235.443145,20.3045375 235.036111,18.0181721 234.085565,15.7982157 C233.202061,13.6494117 231.913916,11.6998346 230.216343,10.018265 C228.51877,8.33669542 226.550638,7.06069481 224.378989,6.11911072 C222.20734,5.24393558 219.96865,4.84073836 217.524048,4.84073836 C215.081841,4.84073836 212.773716,5.24393558 210.602067,6.11911072 C208.430418,7.06069481 206.529327,8.33669542 204.834148,10.018265 C203.136574,11.7662435 201.846035,13.7158207 200.964925,15.8646247 C200.081421,18.0181721 199.607345,20.3045375 199.607345,22.7901298 C199.607345,25.1452759 200.01438,27.4292696 200.897884,29.5828171 C201.846035,31.7339928 203.136574,33.6147892 204.834148,35.3627678 C206.596368,37.1107463 208.566894,38.4555276 210.669108,39.3307027 C212.840757,40.2035061 215.148882,40.6731123 217.524048,40.6731123 Z M171.169997,46.0522375 L152.640348,1.00799304 L158.341226,1.00799304 L171.169997,34.1531761 L183.929333,1.00799304 L189.563169,1.00799304 L171.169997,46.0522375 Z M114.563464,44.3730397 L114.563464,24.5404801 L99.768955,1.00799304 L105.809827,1.00799304 L117.211582,19.8325596 L128.615733,1.00799304 L134.587169,1.00799304 L119.79266,24.5404801 L119.79266,44.3730397 L114.563464,44.3730397 Z M76.081939,44.3730397 L76.081939,5.91514036 L63.729638,5.91514036 L63.729638,1.00799304 L93.661043,1.00799304 L93.661043,5.91514036 L81.375782,5.91514036 L81.375782,44.3730397 L76.081939,44.3730397 Z M49.545681,44.3730397 L54.772484,44.3730397 L54.772484,1.00799304 L49.545681,1.00799304 L49.545681,44.3730397 Z M37.533373,11.3630463 C35.428765,9.14308985 33.254722,7.46152028 30.879556,6.38711828 C28.506784,5.31034454 25.858665,4.77432941 23.007029,4.77432941 C20.698904,4.77432941 18.393173,5.24393558 16.221524,6.11911072 C14.04748,7.06069481 12.081743,8.40310437 10.518251,10.018265 C8.823072,11.7662435 7.601969,13.6494117 6.718464,15.7982157 C5.904395,17.8829825 5.497361,20.2357568 5.497361,22.7901298 C5.497361,24.8084876 5.700878,26.6916558 6.244389,28.3708537 C6.718464,30.1188322 7.465492,31.6675839 8.483079,33.0764024 C10.247693,35.5643664 12.352301,37.4475346 14.930985,38.7923159 C17.509668,40.0706882 20.224828,40.741893 23.210546,40.741893 C25.995141,40.741893 28.640866,40.2035061 31.016032,39.0626952 C33.391198,37.9171407 35.562847,36.1691622 37.533373,33.9515775 L37.533373,40.741893 C35.35933,42.3546819 33.051205,43.4978646 30.541957,44.3066308 C28.030314,45.1130252 25.451631,45.5138507 22.803512,45.5138507 C20.495386,45.5138507 18.187261,45.1794341 16.018006,44.5082294 C13.846357,43.7682439 11.80879,42.8266598 9.840659,41.4818785 C6.651423,39.3307027 4.273863,36.6411401 2.578684,33.4131906 C0.88111,30.1876129 0,26.6916558 0,22.8589105 C0,19.5645521 0.610552,16.5405729 1.695179,13.7846014 C2.849242,11.0238863 4.546815,8.53829403 6.854941,6.32070933 C9.093631,4.16953358 11.605273,2.62078192 14.320433,1.54637992 C17.035593,0.469606172 19.95427,0 23.143505,0 C25.722189,0 28.164396,0.336788264 30.541957,1.1431827 C32.917123,1.88316818 35.225248,3.02397913 37.533373,4.63913976 L37.533373,11.3630463 Z" id="Fill-7"></path>
        </g>
    </g>
</svg>