<?xml version="1.0" encoding="utf-8"?>
<!-- Generator: Adobe Illustrator 19.2.1, SVG Export Plug-In . SVG Version: 6.00 Build 0)  -->
<svg version="1.1" id="Слой_1" xmlns="http://www.w3.org/2000/svg" xmlns:xlink="http://www.w3.org/1999/xlink" x="0px" y="0px"
	 viewBox="0 0 1065 870" style="enable-background:new 0 0 1065 870;" xml:space="preserve">
<style type="text/css">
	.st0{fill:none;}
	.st1{filter:url(#filter-1);}
	.st2{fill:url(#Rectangle_Left_Isometric_12_);}
	.st3{fill:url(#Rectangle_Right_Isometric_12_);}
	.st4{fill:#FAFDF9;}
	.st5{fill:url(#Rectangle_Left_Isometric_13_);}
	.st6{fill:url(#Rectangle_Right_Isometric_13_);}
	.st7{fill:url(#Rectangle_Left_Isometric_14_);}
	.st8{fill:url(#Rectangle_Right_Isometric_14_);}
	.st9{fill:url(#Rectangle_Left_Isometric_15_);}
	.st10{fill:url(#Rectangle_Right_Isometric_15_);}
	.st11{fill:url(#Rectangle_Left_Isometric_16_);}
	.st12{fill:url(#Rectangle_Right_Isometric_16_);}
	.st13{fill:url(#Rectangle_Left_Isometric_17_);}
	.st14{fill:url(#Rectangle_Right_Isometric_17_);}
	.st15{fill:url(#Rectangle_Left_Isometric_18_);}
	.st16{fill:url(#Rectangle_Right_Isometric_18_);}
	.st17{fill:url(#Rectangle_Left_Isometric_19_);}
	.st18{fill:url(#Rectangle_Right_Isometric_19_);}
	.st19{fill:url(#Rectangle_Left_Isometric_20_);}
	.st20{fill:url(#Rectangle_Right_Isometric_20_);}
	.st21{fill:url(#Rectangle_Left_Isometric_21_);}
	.st22{fill:url(#Rectangle_Right_Isometric_21_);}
	.st23{fill:url(#Rectangle_Left_Isometric_22_);}
	.st24{fill:url(#Rectangle_Right_Isometric_22_);}
	.st25{fill:url(#Rectangle_Left_Isometric_23_);}
	.st26{fill:url(#Rectangle_Right_Isometric_23_);}
	.st27{filter:url(#filter-6);}
	.st28{fill:url(#rect-5_2_);}
	.st29{filter:url(#filter-10);}
	.st30{fill:url(#rect-9_2_);}
</style>
<filter  filterUnits="objectBoundingBox" height="105.2%" id="filter-8" width="125.3%" x="-12.7%" y="-2.6%">
	<feGaussianBlur  in="SourceGraphic" stdDeviation="3.83999954"></feGaussianBlur>
</filter>
<filter  filterUnits="objectBoundingBox" height="102.9%" id="filter-7" width="131.5%" x="-15.7%" y="-1.4%">
	<feGaussianBlur  in="SourceGraphic" stdDeviation="5.39899554"></feGaussianBlur>
</filter>
<filter  filterUnits="objectBoundingBox" height="100.0%" id="filter-6" width="100.0%" x="0.0%" y="0.0%">
	<feGaussianBlur  in="SourceGraphic" stdDeviation="0"></feGaussianBlur>
</filter>
<filter  filterUnits="objectBoundingBox" height="100.0%" id="filter-10" width="100.0%" x="0.0%" y="0.0%">
	<feGaussianBlur  in="SourceGraphic" stdDeviation="0"></feGaussianBlur>
</filter>
<filter  filterUnits="objectBoundingBox" height="105.3%" id="filter-1" width="157.7%" x="-28.8%" y="-2.7%">
	<feGaussianBlur  in="SourceGraphic" stdDeviation="10"></feGaussianBlur>
</filter>
<title>poles</title>
<desc>Created with Sketch.</desc>
<g id="Page-1">
	<g id="Интро" transform="translate(-200.000000, -154.000000)">
		<rect y="0" class="st0" width="1440" height="1307.5"/>
		<g id="poles" transform="translate(200.000000, 176.000000)">
			
				<image style="overflow:visible;filter:url(#filter-1);enable-background:new    ;" width="103" height="1121" id="high-Blur" xlink:href="A3E84D7AF6F577B0.png"  transform="matrix(1.0097 0 0 1.0097 511 -1.464844e-05)">
			</image>
			<g id="G" transform="translate(336.000000, 199.000000)">
				<g id="Rectangle_Isometric-Copy-2" transform="translate(137.042437, 6.477129)">
					
						<linearGradient id="Rectangle_Left_Isometric_12_" gradientUnits="userSpaceOnUse" x1="-242.6435" y1="627.3972" x2="-242.6435" y2="627.0166" gradientTransform="matrix(46.0691 0 0 -902.4572 11201.4033 566249.3125)">
						<stop  offset="0" style="stop-color:#F0F2EF"/>
						<stop  offset="1" style="stop-color:#DEDFDD"/>
					</linearGradient>
					<polygon id="Rectangle_Left_Isometric" class="st2" points="46.1,925.5 0,925.5 0,23.1 46.1,46.1 					"/>
					
						<linearGradient id="Rectangle_Right_Isometric_12_" gradientUnits="userSpaceOnUse" x1="-242.6435" y1="627.3763" x2="-242.6435" y2="626.918" gradientTransform="matrix(46.0691 0 0 -902.4572 11247.4727 566249.3125)">
						<stop  offset="0" style="stop-color:#D4CBDC"/>
						<stop  offset="1" style="stop-color:#A79BB2"/>
					</linearGradient>
					<polygon id="Rectangle_Right_Isometric" class="st3" points="46.1,925.5 92.1,925.5 92.1,23.1 46.1,46.1 					"/>
					<polygon id="Rectangle_Top_Isometric" class="st4" points="0,23.1 46.1,0 92.1,23.1 46.1,46.1 					"/>
				</g>
				<g id="Rectangle_Isometric-Copy-3" transform="translate(91.232141, 28.890203)">
					
						<linearGradient id="Rectangle_Left_Isometric_13_" gradientUnits="userSpaceOnUse" x1="-196.8332" y1="604.9636" x2="-196.8332" y2="604.5053" gradientTransform="matrix(46.0691 0 0 -880.0441 9090.9639 532462.5625)">
						<stop  offset="0" style="stop-color:#D4CBDC"/>
						<stop  offset="1" style="stop-color:#A79BB2"/>
					</linearGradient>
					<polygon id="Rectangle_Left_Isometric_1_" class="st5" points="46.1,903.1 0,903.1 0,23.1 46.1,46.1 					"/>
					
						<linearGradient id="Rectangle_Right_Isometric_13_" gradientUnits="userSpaceOnUse" x1="-196.8332" y1="604.9636" x2="-196.8332" y2="604.5053" gradientTransform="matrix(46.0691 0 0 -880.0441 9137.0332 532462.5625)">
						<stop  offset="0" style="stop-color:#D4CBDC"/>
						<stop  offset="1" style="stop-color:#A79BB2"/>
					</linearGradient>
					<polygon id="Rectangle_Right_Isometric_1_" class="st6" points="46.1,903.1 92.1,903.1 92.1,23.1 46.1,46.1 					"/>
					<polygon id="Rectangle_Top_Isometric_1_" class="st4" points="0,23.1 46.1,0 92.1,23.1 46.1,46.1 					"/>
				</g>
				<g id="Rectangle_Isometric-Copy-4" transform="translate(45.810296, 51.693311)">
					
						<linearGradient id="Rectangle_Left_Isometric_14_" gradientUnits="userSpaceOnUse" x1="-151.4113" y1="582.1818" x2="-151.4113" y2="581.8012" gradientTransform="matrix(46.0691 0 0 -857.241 6998.4199 499118.9688)">
						<stop  offset="0" style="stop-color:#F0F2EF"/>
						<stop  offset="1" style="stop-color:#DEDFDD"/>
					</linearGradient>
					<polygon id="Rectangle_Left_Isometric_2_" class="st7" points="46.1,880.3 0,880.3 0,23.1 46.1,46.1 					"/>
					
						<linearGradient id="Rectangle_Right_Isometric_14_" gradientUnits="userSpaceOnUse" x1="-151.4113" y1="582.1609" x2="-151.4113" y2="581.7026" gradientTransform="matrix(46.0691 0 0 -857.241 7044.4888 499118.9688)">
						<stop  offset="0" style="stop-color:#D4CBDC"/>
						<stop  offset="1" style="stop-color:#A79BB2"/>
					</linearGradient>
					<polygon id="Rectangle_Right_Isometric_2_" class="st8" points="46.1,880.3 92.1,880.3 92.1,23.1 46.1,46.1 					"/>
					<polygon id="Rectangle_Top_Isometric_2_" class="st4" points="0,23.1 46.1,0 92.1,23.1 46.1,46.1 					"/>
				</g>
				<g id="Rectangle_Isometric-Copy-5" transform="translate(0.000000, 81.234999)">
					
						<linearGradient id="Rectangle_Left_Isometric_15_" gradientUnits="userSpaceOnUse" x1="-105.601" y1="552.6407" x2="-105.601" y2="552.2601" gradientTransform="matrix(46.0691 0 0 -827.6993 4887.98 457468.25)">
						<stop  offset="0" style="stop-color:#F0F2EF"/>
						<stop  offset="1" style="stop-color:#DEDFDD"/>
					</linearGradient>
					<polygon id="Rectangle_Left_Isometric_3_" class="st9" points="46.1,850.8 0,850.8 0,23.1 46.1,46.1 					"/>
					
						<linearGradient id="Rectangle_Right_Isometric_15_" gradientUnits="userSpaceOnUse" x1="-105.601" y1="552.6198" x2="-105.601" y2="552.1614" gradientTransform="matrix(46.0691 0 0 -827.6993 4934.0493 457468.25)">
						<stop  offset="0" style="stop-color:#D4CBDC"/>
						<stop  offset="1" style="stop-color:#A79BB2"/>
					</linearGradient>
					<polygon id="Rectangle_Right_Isometric_3_" class="st10" points="46.1,850.8 92.1,850.8 92.1,23.1 46.1,46.1 					"/>
					<polygon id="Rectangle_Top_Isometric_3_" class="st4" points="0,23.1 46.1,0 92.1,23.1 46.1,46.1 					"/>
				</g>
				<g id="Rectangle_Isometric-Copy-7" transform="translate(0.000000, 130.862131)">
					
						<linearGradient id="Rectangle_Left_Isometric_16_" gradientUnits="userSpaceOnUse" x1="-105.5967" y1="503.0145" x2="-105.5967" y2="502.6339" gradientTransform="matrix(46.1082 0 0 -778.0526 4891.9302 391418.2188)">
						<stop  offset="0" style="stop-color:#F0F2EF"/>
						<stop  offset="1" style="stop-color:#DEDFDD"/>
					</linearGradient>
					<polygon id="Rectangle_Left_Isometric_4_" class="st11" points="46.1,801.1 0,801.1 0,23.1 46.1,46.2 					"/>
					
						<linearGradient id="Rectangle_Right_Isometric_16_" gradientUnits="userSpaceOnUse" x1="-105.5967" y1="502.9936" x2="-105.5967" y2="502.5353" gradientTransform="matrix(46.1082 0 0 -778.0526 4938.0386 391418.2188)">
						<stop  offset="0" style="stop-color:#D4CBDC"/>
						<stop  offset="1" style="stop-color:#A79BB2"/>
					</linearGradient>
					<polygon id="Rectangle_Right_Isometric_4_" class="st12" points="46.1,801.1 92.2,801.1 92.2,23.1 46.1,46.2 					"/>
					<polygon id="Rectangle_Top_Isometric_4_" class="st4" points="0,23.1 46.1,0 92.2,23.1 46.1,46.2 					"/>
				</g>
				<g id="Rectangle_Isometric-Copy-12" transform="translate(45.308642, 153.544086)">
					
						<linearGradient id="Rectangle_Left_Isometric_17_" gradientUnits="userSpaceOnUse" x1="-150.9053" y1="480.3331" x2="-150.9053" y2="479.9525" gradientTransform="matrix(46.1082 0 0 -755.3707 6981.0308 362875.3125)">
						<stop  offset="0" style="stop-color:#F0F2EF"/>
						<stop  offset="1" style="stop-color:#DEDFDD"/>
					</linearGradient>
					<polygon id="Rectangle_Left_Isometric_5_" class="st13" points="46.1,778.5 0,778.5 0,23.1 46.1,46.2 					"/>
					
						<linearGradient id="Rectangle_Right_Isometric_17_" gradientUnits="userSpaceOnUse" x1="-150.9053" y1="480.3122" x2="-150.9053" y2="479.8539" gradientTransform="matrix(46.1082 0 0 -755.3707 7027.1392 362875.3125)">
						<stop  offset="0" style="stop-color:#D4CBDC"/>
						<stop  offset="1" style="stop-color:#A79BB2"/>
					</linearGradient>
					<polygon id="Rectangle_Right_Isometric_5_" class="st14" points="46.1,778.5 92.2,778.5 92.2,23.1 46.1,46.2 					"/>
					<polygon id="Rectangle_Top_Isometric_5_" class="st4" points="0,23.1 46.1,0 92.2,23.1 46.1,46.2 					"/>
				</g>
				<g id="_x31_" transform="translate(228.792666, 0.000000)">
					
						<linearGradient id="Rectangle_Left_Isometric_18_" gradientUnits="userSpaceOnUse" x1="-334.3937" y1="633.8533" x2="-334.3937" y2="633.395" gradientTransform="matrix(46.0691 0 0 -908.9343 15428.2549 576200.4375)">
						<stop  offset="0" style="stop-color:#D4CBDC"/>
						<stop  offset="1" style="stop-color:#A79BB2"/>
					</linearGradient>
					<polygon id="Rectangle_Left_Isometric_6_" class="st15" points="46.1,932 0,932 0,23.1 46.1,46.1 					"/>
					
						<linearGradient id="Rectangle_Right_Isometric_18_" gradientUnits="userSpaceOnUse" x1="-334.3937" y1="633.8533" x2="-334.3937" y2="633.395" gradientTransform="matrix(46.0691 0 0 -908.9343 15474.3242 576200.4375)">
						<stop  offset="0" style="stop-color:#D4CBDC"/>
						<stop  offset="1" style="stop-color:#A79BB2"/>
					</linearGradient>
					<polygon id="Rectangle_Right_Isometric_6_" class="st16" points="46.1,932 92.1,932 92.1,23.1 46.1,46.1 					"/>
					<polygon id="Rectangle_Top_Isometric_6_" class="st4" points="0,23.1 46.1,0 92.1,23.1 46.1,46.1 					"/>
				</g>
				<g id="_x32_" transform="translate(274.101308, 22.681954)">
					
						<linearGradient id="Rectangle_Left_Isometric_19_" gradientUnits="userSpaceOnUse" x1="-379.7024" y1="611.1718" x2="-379.7024" y2="610.7134" gradientTransform="matrix(46.0691 0 0 -886.2524 17515.584 541720.625)">
						<stop  offset="0" style="stop-color:#D4CBDC"/>
						<stop  offset="1" style="stop-color:#A79BB2"/>
					</linearGradient>
					<polygon id="Rectangle_Left_Isometric_7_" class="st17" points="46.1,909.3 0,909.3 0,23.1 46.1,46.1 					"/>
					
						<linearGradient id="Rectangle_Right_Isometric_19_" gradientUnits="userSpaceOnUse" x1="-379.7024" y1="611.1718" x2="-379.7024" y2="610.7134" gradientTransform="matrix(46.0691 0 0 -886.2524 17561.6523 541720.625)">
						<stop  offset="0" style="stop-color:#D4CBDC"/>
						<stop  offset="1" style="stop-color:#A79BB2"/>
					</linearGradient>
					<polygon id="Rectangle_Right_Isometric_7_" class="st18" points="46.1,909.3 92.1,909.3 92.1,23.1 46.1,46.1 					"/>
					<polygon id="Rectangle_Top_Isometric_7_" class="st4" points="0,23.1 46.1,0 92.1,23.1 46.1,46.1 					"/>
				</g>
				<g id="Rectangle_Isometric-Copy-11" transform="translate(183.629179, 80.457503)">
					
						<linearGradient id="Rectangle_Left_Isometric_20_" gradientUnits="userSpaceOnUse" x1="-289.2302" y1="553.3972" x2="-289.2302" y2="552.9389" gradientTransform="matrix(46.0691 0 0 -828.4768 13347.6133 458542.0625)">
						<stop  offset="0" style="stop-color:#D4CBDC"/>
						<stop  offset="1" style="stop-color:#A79BB2"/>
					</linearGradient>
					<polygon id="Rectangle_Left_Isometric_8_" class="st19" points="46.1,851.5 0,851.5 0,23.1 46.1,46.1 					"/>
					
						<linearGradient id="Rectangle_Right_Isometric_20_" gradientUnits="userSpaceOnUse" x1="-289.2302" y1="553.3972" x2="-289.2302" y2="552.9389" gradientTransform="matrix(46.0691 0 0 -828.4768 13393.6826 458542.0625)">
						<stop  offset="0" style="stop-color:#D4CBDC"/>
						<stop  offset="1" style="stop-color:#A79BB2"/>
					</linearGradient>
					<polygon id="Rectangle_Right_Isometric_8_" class="st20" points="46.1,851.5 92.1,851.5 92.1,23.1 46.1,46.1 					"/>
					<polygon id="Rectangle_Top_Isometric_8_" class="st4" points="0,23.1 46.1,0 92.1,23.1 46.1,46.1 					"/>
				</g>
				<g id="Rectangle_Isometric-Copy-8" transform="translate(229.051024, 103.260611)">
					
						<linearGradient id="Rectangle_Left_Isometric_21_" gradientUnits="userSpaceOnUse" x1="-334.6521" y1="530.5945" x2="-334.6521" y2="530.1362" gradientTransform="matrix(46.0691 0 0 -805.6737 15440.1572 427550.2188)">
						<stop  offset="0" style="stop-color:#D4CBDC"/>
						<stop  offset="1" style="stop-color:#A79BB2"/>
					</linearGradient>
					<polygon id="Rectangle_Left_Isometric_9_" class="st21" points="46.1,828.7 0,828.7 0,23.1 46.1,46.1 					"/>
					
						<linearGradient id="Rectangle_Right_Isometric_21_" gradientUnits="userSpaceOnUse" x1="-334.6521" y1="530.5945" x2="-334.6521" y2="530.1362" gradientTransform="matrix(46.0691 0 0 -805.4094 15486.1123 427410.2188)">
						<stop  offset="0" style="stop-color:#D4CBDC"/>
						<stop  offset="1" style="stop-color:#A79BB2"/>
					</linearGradient>
					<polygon id="Rectangle_Right_Isometric_9_" class="st22" points="46,828.7 92,828.7 92,23.3 46,46.4 					"/>
					<polygon id="Rectangle_Top_Isometric_9_" class="st4" points="0,23.1 46.1,0 92.1,23.1 46.1,46.1 					"/>
				</g>
				<g id="Rectangle_Isometric-Copy-9" transform="translate(182.974610, 126.063718)">
					
						<linearGradient id="Rectangle_Left_Isometric_22_" gradientUnits="userSpaceOnUse" x1="-288.5757" y1="507.8128" x2="-288.5757" y2="507.4322" gradientTransform="matrix(46.0691 0 0 -782.8706 13317.458 397598.3438)">
						<stop  offset="0" style="stop-color:#F0F2EF"/>
						<stop  offset="1" style="stop-color:#DEDFDD"/>
					</linearGradient>
					<polygon id="Rectangle_Left_Isometric_10_" class="st23" points="46.1,805.9 0,805.9 0,23.1 46.1,46.1 					"/>
					
						<linearGradient id="Rectangle_Right_Isometric_22_" gradientUnits="userSpaceOnUse" x1="-288.5757" y1="507.7919" x2="-288.5757" y2="507.3336" gradientTransform="matrix(46.0691 0 0 -782.8706 13363.5273 397598.3438)">
						<stop  offset="0" style="stop-color:#D4CBDC"/>
						<stop  offset="1" style="stop-color:#A79BB2"/>
					</linearGradient>
					<polygon id="Rectangle_Right_Isometric_10_" class="st24" points="46.1,805.9 92.1,805.9 92.1,23.1 46.1,46.1 					"/>
					<polygon id="Rectangle_Top_Isometric_10_" class="st4" points="0,23.1 46.1,0 92.1,23.1 46.1,46.1 					"/>
				</g>
				<g id="Rectangle_Isometric-Copy-10" transform="translate(137.171617, 155.609978)">
					
						<linearGradient id="Rectangle_Left_Isometric_23_" gradientUnits="userSpaceOnUse" x1="-242.7726" y1="478.2672" x2="-242.7726" y2="477.8866" gradientTransform="matrix(46.0691 0 0 -753.06 11207.3545 360209.875)">
						<stop  offset="0" style="stop-color:#F0F2EF"/>
						<stop  offset="1" style="stop-color:#DEDFDD"/>
					</linearGradient>
					<polygon id="Rectangle_Left_Isometric_11_" class="st25" points="46.1,776.4 0,776.4 0,23.3 46.1,46.4 					"/>
					
						<linearGradient id="Rectangle_Right_Isometric_23_" gradientUnits="userSpaceOnUse" x1="-242.7726" y1="478.2463" x2="-242.7726" y2="477.788" gradientTransform="matrix(46.0691 0 0 -753.3243 11253.4238 360336.0312)">
						<stop  offset="0" style="stop-color:#D4CBDC"/>
						<stop  offset="1" style="stop-color:#A79BB2"/>
					</linearGradient>
					<polygon id="Rectangle_Right_Isometric_11_" class="st26" points="46.1,776.4 92.1,776.4 92.1,23.1 46.1,46.1 					"/>
					<polygon id="Rectangle_Top_Isometric_11_" class="st4" points="0,23.1 46.1,0 92.1,23.1 46.1,46.1 					"/>
				</g>
			</g>
			<g id="Bitmap" class="st27">
				
					<image style="overflow:visible;enable-background:new    ;" width="143" height="565" xlink:href="A3E84D7AF6F577B1.png"  transform="matrix(0.7972 0 0 0.8 735 590)">
				</image>
				<g>
					
						<linearGradient id="rect-5_2_" gradientUnits="userSpaceOnUse" x1="233.4386" y1="831.9188" x2="233.4386" y2="832.4009" gradientTransform="matrix(114 0 0 -452 -25820 377069.2812)">
						<stop  offset="0" style="stop-color:#B2A8BC"/>
						<stop  offset="1" style="stop-color:#ACA1B6;stop-opacity:0"/>
					</linearGradient>
					<rect id="rect-5_1_" x="735" y="590" class="st28" width="114" height="452"/>
				</g>
			</g>
			
				<image style="overflow:visible;filter:url(#filter-7);enable-background:new    ;" width="103" height="1121" id="Bitmap-Copy-3" xlink:href="A3E84D7AF6F577B7.png"  transform="matrix(1 0 0 1 949 724)">
			</image>
			
				<image style="overflow:visible;filter:url(#filter-8);enable-background:new    ;" width="143" height="690" id="mid-blur" xlink:href="A3E84D7AF6F577B2.png"  transform="matrix(0.6364 0 0 0.6406 145 418)">
			</image>
			<g id="Bitmap-Copy-2" class="st29">
				
					<image style="overflow:visible;enable-background:new    ;" width="143" height="565" xlink:href="A3E84D7AF6F577B3.png"  transform="matrix(0.7972 0 0 0.8 0 717)">
				</image>
				<g>
					
						<linearGradient id="rect-9_2_" gradientUnits="userSpaceOnUse" x1="233.4386" y1="831.9188" x2="233.4386" y2="832.4009" gradientTransform="matrix(114 0 0 -452 -26555 377196.2812)">
						<stop  offset="0" style="stop-color:#B2A8BC"/>
						<stop  offset="1" style="stop-color:#ACA1B6;stop-opacity:0"/>
					</linearGradient>
					<rect id="rect-9_1_" y="717" class="st30" width="114" height="452"/>
				</g>
			</g>
		</g>
	</g>
</g>
</svg>
