<?xml version="1.0" encoding="UTF-8"?>
<svg width="35px" height="35px" viewBox="0 0 35 35" version="1.1" xmlns="http://www.w3.org/2000/svg" xmlns:xlink="http://www.w3.org/1999/xlink">
    <!-- Generator: Sketch 51 (57462) - http://www.bohemiancoding.com/sketch -->
    <title>Combined Shape Copy</title>
    <desc>Created with Sketch.</desc>
    <defs>
        <linearGradient x1="50%" y1="88.5895404%" x2="89.3299326%" y2="44.0384806%" id="linearGradient-1">
            <stop stop-color="#3AC5E3" offset="0%"></stop>
            <stop stop-color="#87E7C2" offset="100%"></stop>
        </linearGradient>
    </defs>
    <g id="City-Voice" stroke="none" stroke-width="1" fill="none" fill-rule="evenodd">
        <g id="Desktop-HD" transform="translate(-1182.000000, -5064.000000)">
            <path d="M1199.5,5099 C1189.83502,5099 1182,5091.16498 1182,5081.5 C1182,5071.83502 1189.83502,5064 1199.5,5064 C1209.16498,5064 1217,5071.83502 1217,5081.5 C1217,5091.16498 1209.16498,5099 1199.5,5099 Z M1199.49846,5095.00482 C1206.98844,5095.00482 1213.06027,5088.93299 1213.06027,5081.44301 C1213.06027,5073.95303 1206.98844,5067.88121 1199.49846,5067.88121 C1192.00848,5067.88121 1185.93665,5073.95303 1185.93665,5081.44301 C1185.93665,5088.93299 1192.00848,5095.00482 1199.49846,5095.00482 Z" id="Combined-Shape-Copy" fill="url(#linearGradient-1)"></path>
        </g>
    </g>
</svg>