<svg width="421" height="421" viewBox="0 0 421 421" xmlns="http://www.w3.org/2000/svg">
    <title>
        Combined Shape
    </title>
    <defs>
        <linearGradient x1="50%" y1="88.59%" x2="89.33%" y2="44.038%" id="a">
            <stop stop-color="#3AC5E3" offset="0%"/>
            <stop stop-color="#87E7C2" offset="100%"/>
        </linearGradient>
    </defs>
    <path d="M720.25 3136.498c-116.118 0-210.25-94.131-210.25-210.249C510 2810.132 604.132 2716 720.25 2716c116.117 0 210.248 94.132 210.248 210.25 0 116.117-94.131 210.248-210.249 210.248zm-.315-47.628c89.986 0 162.935-72.949 162.935-162.935 0-89.987-72.949-162.935-162.935-162.935C629.948 2763 557 2835.948 557 2925.935c0 89.986 72.948 162.935 162.935 162.935z" fill="url(#a)" transform="translate(-510 -2716)" fill-rule="evenodd"/>
</svg>
