<svg width="1072" height="67" viewBox="0 0 1072 67" xmlns="http://www.w3.org/2000/svg">
    <title>
        logo
    </title>
    <g fill-rule="nonzero" stroke="#FFF" stroke-width="7" fill="none">
        <path d="M1045.846 62.5V39.062l19.7-32.975h-2.71l-16.172 27.993h-4.348l-16.172-27.993h-2.804l19.662 32.977V62.5z"/>
        <path d="M555.307 62.5L575.44 6.087h-3.008l-17.315 52.339h-5.323l-17.27-52.34h-3.183L549.474 62.5z"/>
        <path d="M870.002 62.5V7.568h19.38V6.087h-41.647v1.481h19.424V62.5z"/>
        <path d="M224.641 62.5h3.325L214.6 38.083l3.967-1.33c6.196-2.076 9.917-7.6 9.917-14.786 0-9.863-6.547-15.88-17.682-15.88h-21.065V62.5h2.844V38.11h19.141l12.92 24.39zM192.58 7.349h17.035c9.48 0 15.717 5.813 15.717 14.881 0 9.226-5.958 14.926-15.454 14.926H192.58V7.35z"/>
        <path d="M54.112 35.673H35.008v.954H51.4v4.647c-.16 11.592-8.888 19.667-21.034 19.667-14.223 0-23.1-11.092-23.1-28.021 0-16.674 8.674-27.274 22.924-27.274 8.909 0 15.951 4.569 19.282 12.392h3.094c-3.25-8.594-11.61-14.006-22.42-14.006-16.073 0-25.943 10.869-25.943 28.976 0 18.47 9.927 29.547 26.075 29.547 15.226 0 23.834-8.649 23.834-23.922v-2.96z"/>
        <path d="M404.294 62.5h2.92L386.846 6.087h-5.72L360.758 62.5h2.744l5.8-17.139h29.191l5.801 17.139zM381.26 9.634h5.278l11.826 34.817h-28.93l11.826-34.817z"/>
        <path d="M713.737 62.5V6.087h-2.844V62.5z"/>
    </g>
</svg>
