<svg width="1072" height="65" viewBox="0 0 1072 65" xmlns="http://www.w3.org/2000/svg">
    <title>
        logo
    </title>
    <g stroke="#574848" stroke-width="7" fill="none" fill-rule="evenodd">
        <path d="M1045.846 61.5V38.062l19.7-32.975h-2.71l-16.172 27.993h-4.348l-16.172-27.993h-2.804l19.662 32.977V61.5z"/>
        <path d="M555.307 61.5L575.44 5.087h-3.008l-17.315 52.339h-5.323l-17.27-52.34h-3.183L549.474 61.5z"/>
        <path d="M870.002 61.5V6.568h19.38V5.087h-41.647v1.481h19.424V61.5z"/>
        <path d="M224.641 61.5h3.325L214.6 37.083l3.967-1.33c6.196-2.076 9.917-7.6 9.917-14.786 0-9.863-6.547-15.88-17.682-15.88h-21.065V61.5h2.844V37.11h19.141l12.92 24.39zM192.58 6.349h17.035c9.48 0 15.717 5.813 15.717 14.881 0 9.226-5.958 14.926-15.454 14.926H192.58V6.35z"/>
        <path d="M50.181 33.526H32.576v.889h15.106v4.332c-.146 10.806-8.19 18.334-19.384 18.334-13.108 0-21.288-10.34-21.288-26.122 0-15.543 7.994-25.425 21.126-25.425 8.21 0 14.7 4.26 17.77 11.552h2.851C45.761 9.075 38.057 4.03 28.095 4.03c-14.812 0-23.908 10.132-23.908 27.011 0 17.218 9.149 27.544 24.03 27.544 13.117 0 20.905-7.046 21.864-19.596.067-.875.159-5.463.1-5.463z"/>
        <path d="M404.294 61.5h2.92L386.846 5.087h-5.72L360.758 61.5h2.744l5.8-17.139h29.191l5.801 17.139zM381.26 8.634h5.278l11.826 34.817h-28.93l11.826-34.817z"/>
        <path d="M713.737 61.5V5.087h-2.844V61.5z"/>
    </g>
</svg>
