<svg width="342" height="46" viewBox="0 0 342 46" xmlns="http://www.w3.org/2000/svg">
    <title>
        logo-city
    </title>
    <path d="M318.924 44.373V1.008H342v4.706h-17.92V18.15H342v4.774h-17.92v16.607H342v4.841h-23.076zm-12.015-33.01c-2.102-2.22-4.274-3.901-6.65-4.976-2.377-1.077-5.022-1.613-7.872-1.613-2.308 0-4.616.47-6.788 1.345-2.171.942-4.14 2.284-5.7 3.9a17.886 17.886 0 0 0-3.803 5.78c-.814 2.084-1.22 4.437-1.22 6.991 0 2.018.203 3.902.746 5.58a14.338 14.338 0 0 0 2.239 4.706c1.765 2.488 3.87 4.372 6.448 5.716a18.495 18.495 0 0 0 8.28 1.95c2.784 0 5.43-.538 7.805-1.68 2.375-1.145 4.55-2.893 6.515-5.11v6.79c-2.17 1.613-4.478 2.756-6.99 3.565a25.152 25.152 0 0 1-7.735 1.207c-2.308 0-4.616-.335-6.788-1.006-2.172-.74-4.21-1.681-6.177-3.026-3.123-2.151-5.565-4.84-7.262-8.069-1.698-3.225-2.512-6.721-2.512-10.554 0-3.294.543-6.318 1.63-9.074 1.154-2.761 2.85-5.247 5.158-7.464 2.238-2.151 4.75-3.7 7.465-4.775C286.413.47 289.332 0 292.521 0c2.579 0 5.024.337 7.399 1.143 2.375.74 4.683 1.881 6.989 3.496v6.724zm-54.363 33.01h5.227V1.008h-5.227v43.365zM240.94 22.79c0 3.093-.611 5.986-1.765 8.742-1.154 2.756-2.852 5.178-5.023 7.33-2.24 2.081-4.818 3.763-7.67 4.906a23.871 23.871 0 0 1-8.959 1.746c-3.053 0-6.04-.603-8.89-1.746a23.786 23.786 0 0 1-7.602-4.907c-2.239-2.151-3.936-4.639-5.157-7.395-1.154-2.69-1.698-5.65-1.698-8.676 0-3.159.544-6.048 1.698-8.806 1.22-2.756 2.918-5.175 5.157-7.327 2.172-2.153 4.683-3.766 7.535-4.909C211.483.605 214.47 0 217.524 0c3.122 0 6.11.605 9.027 1.748a23.33 23.33 0 0 1 7.602 4.91 21.81 21.81 0 0 1 5.023 7.326 22.439 22.439 0 0 1 1.765 8.806zm-23.417 17.883c2.378 0 4.683-.47 6.855-1.342 2.172-.942 4.073-2.22 5.837-3.968a17.372 17.372 0 0 0 3.87-5.78c.95-2.154 1.357-4.438 1.357-6.793 0-2.485-.407-4.772-1.357-6.992a17.396 17.396 0 0 0-3.87-5.78c-1.697-1.681-3.665-2.957-5.837-3.899-2.172-.875-4.41-1.278-6.855-1.278-2.442 0-4.75.403-6.922 1.278a18.528 18.528 0 0 0-5.768 3.9c-1.697 1.747-2.988 3.697-3.87 5.846a18.004 18.004 0 0 0-1.357 6.925c0 2.355.407 4.64 1.29 6.793.949 2.151 2.24 4.032 3.937 5.78 1.762 1.748 3.733 3.093 5.835 3.968a18.327 18.327 0 0 0 6.855 1.342zm-46.354 5.38L152.64 1.007h5.701l12.829 33.145 12.76-33.145h5.633L171.17 46.052zm-56.607-1.68V24.54L99.77 1.008h6.04l11.403 18.825 11.404-18.825h5.971L119.793 24.54v19.833h-5.23zm-38.481 0V5.915H63.73V1.008H93.66v4.907H81.376v38.458h-5.294zm-26.536 0h5.226V1.008h-5.226v43.365zm-12.013-33.01c-2.104-2.22-4.278-3.901-6.653-4.976-2.373-1.077-5.021-1.613-7.873-1.613-2.308 0-4.614.47-6.785 1.345-2.175.942-4.14 2.284-5.704 3.9a17.918 17.918 0 0 0-3.8 5.78c-.814 2.084-1.22 4.437-1.22 6.991 0 2.018.203 3.902.746 5.58a14.338 14.338 0 0 0 2.24 4.706c1.764 2.488 3.868 4.372 6.447 5.716 2.579 1.279 5.294 1.95 8.28 1.95 2.784 0 5.43-.538 7.805-1.68 2.375-1.145 4.547-2.893 6.517-5.11v6.79c-2.174 1.613-4.482 2.756-6.991 3.565a25.156 25.156 0 0 1-7.738 1.207c-2.309 0-4.617-.335-6.786-1.006-2.172-.74-4.21-1.681-6.177-3.026-3.19-2.151-5.567-4.84-7.262-8.069C.88 30.188 0 26.692 0 22.86c0-3.294.61-6.318 1.695-9.074 1.154-2.761 2.852-5.247 5.16-7.464 2.239-2.151 4.75-3.7 7.465-4.775C17.036.47 19.954 0 23.144 0c2.578 0 5.02.337 7.398 1.143 2.375.74 4.683 1.881 6.991 3.496v6.724z" fill="#FFF" fill-rule="nonzero"/>
</svg>
