<?xml version="1.0" encoding="UTF-8"?><!DOCTYPE svg PUBLIC "-//W3C//DTD SVG 1.1//EN" "http://www.w3.org/Graphics/SVG/1.1/DTD/svg11.dtd"><svg xmlns="http://www.w3.org/2000/svg"><symbol id="icon-arr-left" viewBox="0 0 32 25">
    <title>
        Fill 1
    </title>
    <path d="M30.421 11.505H3.954l.977-1.016 7.806-8.117c.194-.192.305-.458.307-.737A1.054 1.054 0 0 0 12.75.89a.955.955 0 0 0-.702-.29.96.96 0 0 0-.698.326L.89 11.8a1.058 1.058 0 0 0 0 1.455L11.34 24.12a.944.944 0 0 0 1.353-.011 1.058 1.058 0 0 0 .034-1.435l-8.772-9.117H30.42c.537 0 .979-.455.979-1.026 0-.572-.442-1.026-.979-1.026z" fill-rule="nonzero"/>
</symbol><symbol id="icon-arr-right" viewBox="0 0 31 24">
    <title>
        Fill 1
    </title>
    <path d="M1.179 10.904h26.467l-.977-1.015-7.806-8.118a1.047 1.047 0 0 1-.307-.736c-.002-.282.105-.551.295-.745a.955.955 0 0 1 .702-.29.96.96 0 0 1 .698.326L30.71 11.2a1.058 1.058 0 0 1-.001 1.456L20.26 23.52a.944.944 0 0 1-1.353-.011 1.058 1.058 0 0 1-.034-1.435l8.772-9.117H1.18c-.537 0-.979-.455-.979-1.026 0-.572.442-1.027.979-1.027z" fill-rule="nonzero"/>
</symbol><symbol id="icon-arrow-left" viewBox="0 0 10 18">
    <title>
        arrow-left
    </title>
    <path d="M.28 8.34l8-8.05A1.05 1.05 0 0 1 9.7.26a.93.93 0 0 1 0 1.33L2.3 9l7.44 7.4a1 1 0 0 1 0 1.35 1.05 1.05 0 0 1-1.42 0l-8-8.05A.82.82 0 0 1 0 9a1.07 1.07 0 0 1 .28-.66z"/>
</symbol><symbol id="icon-arrow-right" viewBox="0 0 10 18">
    <title>
        arrow-right
    </title>
    <path data-name="Page-1" d="M9.72 8.34l-8-8.05A1.05 1.05 0 0 0 .3.26a.93.93 0 0 0 0 1.33L7.7 9 .27 16.4a1 1 0 0 0 0 1.35 1.05 1.05 0 0 0 1.42 0l8-8.05A.82.82 0 0 0 10 9a1.07 1.07 0 0 0-.28-.66z"/>
</symbol><symbol id="icon-behance" viewBox="0 0 27 17">
    <title>
        behance
    </title>
    <path d="M24.38 2.41h-6.76V.71h6.77v1.7zm-11.27 7a4.54 4.54 0 0 1 .65 2.49 5 5 0 0 1-.76 2.68 4.68 4.68 0 0 1-1.19 1.34 4.57 4.57 0 0 1-1.9.85 11.59 11.59 0 0 1-2.34.23H0V0h8.11c2 0 3.49.63 4.35 1.81a4.36 4.36 0 0 1 .77 2.6 3.81 3.81 0 0 1-.78 2.5 4 4 0 0 1-1.28 1 3.74 3.74 0 0 1 1.94 1.47zM3.87 6.7h3.56a3.34 3.34 0 0 0 1.78-.42 1.61 1.61 0 0 0 .68-1.49A1.52 1.52 0 0 0 9 3.22 6.28 6.28 0 0 0 7 3H3.87v3.7zm6.35 4.92A1.83 1.83 0 0 0 9.16 9.8a4.17 4.17 0 0 0-1.68-.29H3.87V14h3.55a3.9 3.9 0 0 0 1.7-.3 2.15 2.15 0 0 0 1.11-2.07zm16.67-2.76a16.18 16.18 0 0 1 .1 2.42h-8.75a2.92 2.92 0 0 0 1.26 2.57 3.14 3.14 0 0 0 1.73.46 2.63 2.63 0 0 0 1.77-.56 2.65 2.65 0 0 0 .65-.84h3.21a4 4 0 0 1-1.17 2.2 5.81 5.81 0 0 1-4.53 1.78 6.52 6.52 0 0 1-4.24-1.5q-1.83-1.5-1.83-4.88a6.64 6.64 0 0 1 1.66-4.85A5.77 5.77 0 0 1 21 4a6.79 6.79 0 0 1 2.83.57 4.89 4.89 0 0 1 2.08 1.8 6.05 6.05 0 0 1 .98 2.49zm-3.16.32a2.67 2.67 0 0 0-.84-1.92A2.72 2.72 0 0 0 21 6.59a2.48 2.48 0 0 0-1.88.7 3.3 3.3 0 0 0-.84 1.89h5.42z"/>
</symbol><symbol id="icon-chevron-down" viewBox="0 0 12 7.4">
    <path d="M1.4 0L6 4.6 10.6 0 12 1.4l-6 6-6-6L1.4 0z"/>
</symbol><symbol id="icon-close" viewBox="0 0 19 19">
    <title>
        Shape
    </title>
    <path d="M1.53 1.006a.586.586 0 0 0-.348 1.007l7.493 7.493-7.493 7.484a.586.586 0 1 0 .823.833L9.5 10.329l7.493 7.494a.586.586 0 1 0 .823-.833l-7.493-7.484 7.493-7.493a.586.586 0 1 0-.823-.833L9.499 8.673 2.005 1.18a.586.586 0 0 0-.475-.174z" fill-rule="nonzero"/>
</symbol><symbol id="icon-code" viewBox="0 0 39 23">
    <title>
        code
    </title>
    <path d="M23.014-2H23h.014zM22.957.679c-.451.01-.837.274-.964.668l-6.95 20.493a.809.809 0 0 0 .082.69.997.997 0 0 0 .6.432c.264.069.543.043.782-.072a.937.937 0 0 0 .492-.542l6.955-20.504a.818.818 0 0 0-.16-.81 1.07 1.07 0 0 0-.837-.355zM9.204 1.889l-8.94 8.842a.864.864 0 0 0-.001 1.243l8.94 8.844.058.06c.173.198.424.318.696.334.27.017.535-.071.735-.247a.879.879 0 0 0 .308-.662.884.884 0 0 0-.314-.667l-.064-.058L2.3 11.363l.812-.803 7.522-7.442a.866.866 0 0 0 .189-1.015.987.987 0 0 0-.944-.53c-.257.018-.49.125-.675.316zm18.97.224c-.161.34-.085.736.205 1.015l8.32 8.233-8.321 8.216-.064.06a.882.882 0 0 0-.314.662.883.883 0 0 0 .31.668c.198.174.462.262.737.245.268-.016.519-.136.692-.333l.057-.061 8.94-8.843a.864.864 0 0 0 .001-1.243l-8.959-8.863a1 1 0 0 0-.67-.297c-.406-.012-.773.203-.934.541z" fill-rule="evenodd"/>
</symbol><symbol id="icon-design" viewBox="0 0 39 40.65">
    <title>
        design
    </title>
    <g>
        <path d="M37 4.11a2 2 0 0 0 2-2.05 2 2 0 0 0-3.9-.67H21.47V0h-4v1.38H3.9A2 2 0 0 0 2 0a2 2 0 0 0-2 2.05 2 2 0 0 0 2 2.06 2 2 0 0 0 1.9-1.39h8.5A18.72 18.72 0 0 0 1.31 17.93H0V22h4v-4.06H2.87A16.92 16.92 0 0 1 17.49 3v1.15h4V3a16.92 16.92 0 0 1 14.6 14.94H35V22h4v-4.06h-1.35A18.72 18.72 0 0 0 26.56 2.72h8.54A2 2 0 0 0 37 4.11z"/>
        <path d="M13 36.71V39h13.35v-2.29H13zm13.74-1.6a1.25 1.25 0 0 1 1.13 1.36v2.82a1.25 1.25 0 0 1-1.13 1.36H12.61a1.25 1.25 0 0 1-1.13-1.36v-2.82a1.25 1.25 0 0 1 1.13-1.36h14.17z"/>
        <path d="M29.39 24.26l-1.59 8.48a1.85 1.85 0 0 1-1.8 1.55H12.71a1.91 1.91 0 0 1-1.81-1.57l-1.58-8.43A4.78 4.78 0 0 1 9.81 21l6.73-12.59A3.77 3.77 0 0 1 18 7.09l.6-.29a.5.5 0 0 1 .71.45V20l-.58.24a2.13 2.13 0 0 0-1.26 1.94 1.87 1.87 0 1 0 3.72 0 2 2 0 0 0-1.24-1.93l-.6-.25V7.23a.5.5 0 0 1 .7-.46l.61.23a3.35 3.35 0 0 1 1.52 1.5l6.71 12.44a4.76 4.76 0 0 1 .5 3.32zM17.46 10.62l-6 11.27a2.87 2.87 0 0 0-.29 2l1.58 8.42v.07H26s.53-2.84 1.6-8.52a2.85 2.85 0 0 0-.31-2L21.2 10.61v8.14a4 4 0 0 1 1.8 3.41 3.82 3.82 0 0 1-3.71 3.93 3.82 3.82 0 0 1-3.71-3.93 4.07 4.07 0 0 1 1.84-3.4v-8.14z"/>
    </g>
</symbol><symbol id="icon-dribbble" viewBox="0 0 27 27">
    <title>
        dribbble
    </title>
    <path d="M13.5 0A13.5 13.5 0 1 0 27 13.5 13.5 13.5 0 0 0 13.5 0zm10.92 12.53a35 35 0 0 0-7.23.48q-.42-1-.85-1.92l.53-.26a16 16 0 0 0 5.24-4.11 10.85 10.85 0 0 1 2.31 5.81zm-4.1-7.62a13.59 13.59 0 0 1-5.1 3.91c-.22-.44-.48-.82-.71-1.27a49.45 49.45 0 0 0-3.11-4.81 11.08 11.08 0 0 1 2.1-.2 10.88 10.88 0 0 1 6.81 2.37zm-14.57.84a11 11 0 0 1 3.1-2.18 45.93 45.93 0 0 1 3.49 5.3l.48.87a25.32 25.32 0 0 1-3.41.79 32.67 32.67 0 0 1-6.56.37 10.89 10.89 0 0 1 2.9-5.15zM2.54 13.5v-.08H4.3A34.76 34.76 0 0 0 9.75 13 27.16 27.16 0 0 0 14 12q.35.74.69 1.54a22.59 22.59 0 0 0-4.61 1.77 15.91 15.91 0 0 0-5.46 4.56 10.88 10.88 0 0 1-2.08-6.37zm3.81 8.31c1.93-2.82 5-4.79 9.26-5.87a40 40 0 0 1 2 7.73 11 11 0 0 1-11.26-1.86zm14.9-.56A11.11 11.11 0 0 1 20 22.36a42.86 42.86 0 0 0-1.84-6.93 32.88 32.88 0 0 1 6.22-.36 10.88 10.88 0 0 1-3.13 6.18z"/>
</symbol><symbol id="icon-facebook" viewBox="0 0 10 19">
    <title>
        facebook
    </title>
    <path d="M9.766.157v2.946H8.014c-.64 0-1.071.134-1.295.402-.223.268-.335.67-.335 1.205v2.11h3.27l-.435 3.303H6.384v8.471H2.97v-8.47H.123V6.82H2.97V4.387c0-1.384.387-2.457 1.161-3.22C4.904.404 5.934.023 7.222.023c1.093 0 1.941.045 2.544.134z" fill-rule="evenodd"/>
</symbol><symbol id="icon-prototype" viewBox="0 0 38 16">
    <title>
        prototype
    </title>
    <path d="M37.999 14.114c0 1.037-.866 1.886-1.922 1.886H1.922C.866 16 0 15.151 0 14.114L.001 1.886C.001.849.867 0 1.923 0h34.155C37.134 0 38 .849 38 1.886v.475l-.001 11.753zm-1.93-12.223H33.2v4.698a.954.954 0 0 1-.963.945.954.954 0 0 1-.962-.946V1.891h-2.682v2.817a.954.954 0 0 1-.962.945.954.954 0 0 1-.963-.946V1.891h-2.39v2.817a.954.954 0 0 1-.963.945.954.954 0 0 1-.963-.946V1.891h-2.39v4.698a.954.954 0 0 1-.963.945.954.954 0 0 1-.963-.946V1.891h-2.39v2.817a.954.954 0 0 1-.963.945.954.954 0 0 1-.963-.946V1.891h-2.39v2.817a.954.954 0 0 1-.963.945.954.954 0 0 1-.963-.946V1.891h-2.68v4.698a.954.954 0 0 1-.964.945.954.954 0 0 1-.962-.946V1.891h-2.87v12.22h34.148V2.36l-.006-.47z" fill-rule="nonzero"/>
</symbol><symbol id="icon-quaver" viewBox="0 0 40 40">
    <title>
        A2DD5D7A-0774-4C4A-92F2-CD3B95D88813
    </title>
    <path d="M13.598 7.006v20.105a6.929 6.929 0 0 0-3.63-1.027C6.122 26.084 3 29.199 3 33.04 3 36.884 6.12 40 9.969 40a6.962 6.962 0 0 0 6.966-6.958V14.294l17.728-5.089v11.903a6.931 6.931 0 0 0-3.63-1.027c-3.848 0-6.97 3.115-6.97 6.953 0 3.843 3.12 6.96 6.97 6.96a6.965 6.965 0 0 0 6.934-6.305H38V0L13.598 7.006z" fill-rule="evenodd"/>
</symbol></svg>