<?xml version="1.0" encoding="UTF-8"?><!DOCTYPE svg PUBLIC "-//W3C//DTD SVG 1.1//EN" "http://www.w3.org/Graphics/SVG/1.1/DTD/svg11.dtd"><svg xmlns="http://www.w3.org/2000/svg"><symbol id="icon-arr-left" viewBox="0 0 32 25">
    <title>
        Fill 1
    </title>
    <path d="M30.421 11.505H3.954l.977-1.016 7.806-8.117c.194-.192.305-.458.307-.737A1.054 1.054 0 0 0 12.75.89a.955.955 0 0 0-.702-.29.96.96 0 0 0-.698.326L.89 11.8a1.058 1.058 0 0 0 0 1.455L11.34 24.12a.944.944 0 0 0 1.353-.011 1.058 1.058 0 0 0 .034-1.435l-8.772-9.117H30.42c.537 0 .979-.455.979-1.026 0-.572-.442-1.026-.979-1.026z" fill-rule="nonzero"/>
</symbol><symbol id="icon-arr-right" viewBox="0 0 31 24">
    <title>
        Fill 1
    </title>
    <path d="M1.179 10.904h26.467l-.977-1.015-7.806-8.118a1.047 1.047 0 0 1-.307-.736c-.002-.282.105-.551.295-.745a.955.955 0 0 1 .702-.29.96.96 0 0 1 .698.326L30.71 11.2a1.058 1.058 0 0 1-.001 1.456L20.26 23.52a.944.944 0 0 1-1.353-.011 1.058 1.058 0 0 1-.034-1.435l8.772-9.117H1.18c-.537 0-.979-.455-.979-1.026 0-.572.442-1.027.979-1.027z" fill-rule="nonzero"/>
</symbol><symbol id="icon-arrow-left" viewBox="0 0 10 18">
    <title>
        arrow-left
    </title>
    <path d="M.28 8.34l8-8.05A1.05 1.05 0 0 1 9.7.26a.93.93 0 0 1 0 1.33L2.3 9l7.44 7.4a1 1 0 0 1 0 1.35 1.05 1.05 0 0 1-1.42 0l-8-8.05A.82.82 0 0 1 0 9a1.07 1.07 0 0 1 .28-.66z"/>
</symbol><symbol id="icon-arrow-right" viewBox="0 0 10 18">
    <title>
        arrow-right
    </title>
    <path data-name="Page-1" d="M9.72 8.34l-8-8.05A1.05 1.05 0 0 0 .3.26a.93.93 0 0 0 0 1.33L7.7 9 .27 16.4a1 1 0 0 0 0 1.35 1.05 1.05 0 0 0 1.42 0l8-8.05A.82.82 0 0 0 10 9a1.07 1.07 0 0 0-.28-.66z"/>
</symbol><symbol id="icon-bamboo-logo" viewBox="0 0 480 160">
    <title>
        3BB0DB85-F691-4755-9B85-D924F00DBE72
    </title>
    <g fill-rule="evenodd">
        <path d="M.973 158.793V28.755s.127-.188.804-.095c.687.088 1.057.314 1.057.314 2.847 1.238 5.275 5.139 7.281 10.21 5.416 13.669 5.663 27.585 1.06 41.405-2.03 6.105-4.834 11.256-8.024 12.99l-.55.26.55.261c3.19 1.734 5.992 6.877 8.023 12.995 4.604 13.83 4.357 27.741-1.059 41.408-1.898 4.794-4.386 7.92-6.717 9.452 0-.003-1.086.657-2.425.838zm208.533 0V28.755s.12-.188.804-.095c.682.088 1.054.314 1.054.314 2.84 1.238 5.27 5.139 7.284 10.21 5.415 13.669 5.655 27.585 1.059 41.405-2.03 6.105-4.84 11.256-8.03 12.99l-.545.26.544.261c3.19 1.734 5.998 6.877 8.031 12.995 4.596 13.83 4.356 27.741-1.06 41.408-1.903 4.794-4.395 7.92-6.726 9.452-.002-.003-1.084.657-2.415.838zm61.958-103.451c6.13 27.655 5.807 55.487-1.41 82.826-2.677 10.139-6.09 18.196-9.888 20.67-3.795-2.476-7.212-10.531-9.885-20.67-7.214-27.339-7.54-55.17-1.408-82.826 2.832-12.784 6.791-23.567 11.293-26.493 4.503 2.926 8.458 13.71 11.298 26.493zm-10.634 79.831c.487-25.489.512-51.443.095-77.24-.19-11.915-.455-21.973-.76-24.698-.304 2.725-.566 12.783-.756 24.699-.415 25.796-.39 51.75.097 77.24.17 9.449.402 16.973.66 19.283.262-2.308.49-9.834.664-19.284zm59.86-79.831c6.132 27.655 5.813 55.487-1.409 82.826-2.673 10.139-6.09 18.196-9.884 20.67-3.797-2.476-7.217-10.531-9.887-20.67-7.219-27.339-7.544-55.17-1.406-82.826 2.83-12.784 6.787-23.567 11.293-26.493 4.496 2.926 8.46 13.71 11.293 26.493zm-10.626 79.831c.49-25.489.502-51.443.095-77.24-.188-11.915-.455-21.973-.76-24.698-.302 2.725-.574 12.783-.762 24.699-.404 25.796-.394 51.75.093 77.24.18 9.449.41 16.973.67 19.283.26-2.308.481-9.834.664-19.284zM78.16 53.125c11.21 26.465 16.031 54.352 13.918 83.095-.777 10.647-2.68 19.377-5.993 22.575L74.664 97.057h-25.45L37.79 158.795c-3.322-3.198-5.215-11.93-5.992-22.575-2.108-28.743 2.715-56.63 13.923-83.095 5.186-12.235 11.113-22.248 16.124-24.297L49.582 95.09h24.72l-12.265-66.26c5.01 2.048 10.943 12.06 16.124 24.296zm274.535 105.668V28.755s.124-.188.794-.095c.687.088 1.059.314 1.059.314 2.845 1.238 5.276 5.139 7.279 10.21 5.42 13.669 5.668 27.585 1.059 41.405-2.02 6.105-4.83 11.256-8.018 12.99l-.55.26.55.261c3.187 1.734 5.995 6.877 8.018 12.995 4.609 13.83 4.361 27.741-1.06 41.408-1.897 4.794-4.385 7.92-6.716 9.452 0-.003-1.089.657-2.415.838zm77.172-105.668c11.216 26.465 16.04 54.352 13.929 83.095-.785 10.647-2.678 19.377-5.995 22.575l-11.423-61.738h-25.444l-11.428 61.738c-3.324-3.198-5.215-11.93-5.995-22.575-2.103-28.743 2.72-56.63 13.929-83.095 5.18-12.235 11.105-22.248 16.121-24.297l-12.27 66.261h24.72l-12.265-66.26c5.01 2.048 10.94 12.06 16.121 24.296zm-254.14 0c11.209 26.465 16.037 54.352 13.927 83.093-.785 10.647-2.673 19.376-6.003 22.575L160.984 36.285l-11.708 120.394-.182 1.845h-1.656l-.185-1.845-11.845-120.656-22.721 122.77c-3.323-3.199-5.216-11.928-6-22.56-2.106-28.73 2.722-56.613 13.928-83.066 5.186-12.227 11.113-22.24 16.119-24.303l-.05.287.048-.227 11.535 117.475 11.395-117.251-.052-.32c5.006 2.049 10.936 12.062 16.119 24.297zm288.394-22.887c4.821 5.805 30.822 40.263 1.654 76.485 4.564 6.08 14.003 20.936 13.618 39.417v12.73h-1.98v-12.224c.364-17.545-8.131-31.83-12.895-38.441-.13.156-.277.317-.397.473v50.115h-1.963V29.61h1.204v-.257s.092.109.237.257h.522v.627zM338.51 140.156c1.746 5.23 1.654 10.479-.402 15.64-.762 1.912-1.731 3.437-2.815 3.898-1.08-.46-2.051-1.986-2.81-3.898-2.051-5.161-2.144-10.41-.398-15.64.805-2.408 1.929-4.449 3.208-5.003 1.284.554 2.413 2.595 3.217 5.003zm-2.883 13.267c.25-3.707.25-7.451.043-11.193-.098-1.73-.227-3.184-.38-3.586-.15.402-.28 1.857-.38 3.586-.2 3.742-.192 7.486.05 11.193.093 1.361.21 2.446.333 2.785.127-.337.24-1.424.334-2.785z"/>
        <path d="M1.178.773A18.633 18.633 0 0 1 4.345.518c1.629 0 2.825.383 3.587 1.072.697.612 1.117 1.545 1.117 2.696 0 1.165-.343 2.078-.987 2.747-.874.94-2.293 1.415-3.907 1.415-.492 0-.95-.02-1.326-.114v5.154H1.18L1.178.773zm1.648 6.205c.36.096.815.133 1.367.133 1.99 0 3.204-.973 3.204-2.747 0-1.702-1.196-2.527-3.02-2.527-.716 0-1.269.058-1.55.136v5.005zM27.85 9.444l-1.329 4.047h-1.706L29.157.617h1.99l4.364 12.874h-1.766l-1.364-4.047h-4.53zm4.192-1.298l-1.254-3.71c-.282-.837-.472-1.602-.665-2.347h-.037c-.19.762-.397 1.55-.645 2.327l-1.251 3.73h3.852zm21.452 5.345V.617h1.8l4.097 6.515c.947 1.507 1.689 2.863 2.296 4.184l.037-.02c-.152-1.72-.19-3.286-.19-5.292V.617h1.557V13.49h-1.674l-4.059-6.536c-.887-1.429-1.741-2.898-2.385-4.293l-.058.02c.095 1.626.135 3.171.135 5.308v5.5h-1.556zM84.14 9.444l-1.327 4.047h-1.708L85.452.617h1.988l4.364 12.874h-1.76l-1.372-4.047H84.14zm4.194-1.298l-1.252-3.71c-.282-.837-.474-1.602-.664-2.347h-.04c-.19.762-.4 1.55-.645 2.327l-1.254 3.73h3.855zm21.224 3.324c.737.458 1.826.84 2.963.84 1.683 0 2.67-.898 2.67-2.199 0-1.205-.68-1.895-2.408-2.56-2.088-.747-3.375-1.836-3.375-3.65 0-2.009 1.649-3.498 4.137-3.498 1.304 0 2.253.307 2.82.631l-.455 1.36a4.98 4.98 0 0 0-2.425-.617c-1.746 0-2.41 1.051-2.41 1.935 0 1.203.779 1.794 2.542 2.481 2.161.838 3.265 1.89 3.265 3.78 0 1.988-1.464 3.73-4.479 3.73-1.229 0-2.577-.383-3.26-.839l.415-1.394zM136.894.617V13.49h-1.649V.617h1.649zm21.06 8.827l-1.33 4.047h-1.705L159.26.617h1.988l4.367 12.874h-1.766l-1.362-4.047h-4.533zm4.189-1.298l-1.25-3.71c-.284-.837-.474-1.602-.664-2.347h-.037c-.192.762-.4 1.55-.647 2.327l-1.252 3.73h3.85zM183.6 13.49V.617h1.8l4.095 6.515c.952 1.507 1.693 2.863 2.298 4.184l.04-.02c-.153-1.72-.19-3.286-.19-5.292V.617h1.556V13.49h-1.67l-4.057-6.536c-.892-1.429-1.747-2.898-2.391-4.293l-.052.02c.092 1.626.13 3.171.13 5.308v5.5h-1.56zM232.314.788c.834-.171 2.028-.27 3.167-.27 1.766 0 2.903.328 3.697 1.052.645.571 1.004 1.452 1.004 2.444 0 1.703-1.061 2.83-2.408 3.294v.053c.985.344 1.574 1.263 1.876 2.6.417 1.798.722 3.039.99 3.532h-1.71c-.206-.375-.491-1.467-.856-3.072-.375-1.78-1.059-2.446-2.555-2.504h-1.556v5.576h-1.65V.788zm1.649 5.863h1.686c1.768 0 2.885-.971 2.885-2.444 0-1.663-1.197-2.388-2.938-2.405-.8 0-1.366.073-1.633.148v4.701zm31.276.805h-4.966v4.64h5.543v1.395h-7.192V.617h6.902V2.01h-5.253V6.08h4.966v1.376zm18.59 4.014c.739.458 1.828.84 2.962.84 1.69 0 2.673-.898 2.673-2.199 0-1.205-.682-1.895-2.41-2.56-2.087-.747-3.378-1.836-3.378-3.65 0-2.009 1.649-3.498 4.139-3.498 1.306 0 2.25.307 2.828.631l-.458 1.36a5.015 5.015 0 0 0-2.433-.617c-1.748 0-2.407 1.051-2.407 1.935 0 1.203.779 1.794 2.542 2.481 2.161.838 3.26 1.89 3.26 3.78 0 1.988-1.459 3.73-4.471 3.73-1.23 0-2.58-.383-3.26-.839l.412-1.394zm28.113-9.44h-3.889V.62h9.465v1.412h-3.905v11.46h-1.67V2.03zm23.75 7.414l-1.331 4.047h-1.699L337.004.617h1.986l4.36 12.874h-1.76l-1.364-4.047h-4.534zm4.192-1.298l-1.252-3.71c-.284-.837-.477-1.602-.664-2.347h-.043a30.69 30.69 0 0 1-.644 2.327l-1.249 3.73h3.852zm22.573-7.53v7.625c0 2.884 1.264 4.105 2.978 4.105 1.896 0 3.105-1.261 3.105-4.105V.617h1.673v7.509c0 3.955-2.073 5.579-4.83 5.579-2.623 0-4.6-1.515-4.6-5.504V.614l1.674.003zm26.728.172c.832-.171 2.02-.27 3.162-.27 1.764 0 2.895.328 3.697 1.052.645.571 1.002 1.452 1.002 2.444 0 1.703-1.064 2.83-2.406 3.294v.053c.99.344 1.58 1.263 1.881 2.6.415 1.798.717 3.039.982 3.532h-1.709c-.212-.375-.487-1.467-.856-3.072-.373-1.78-1.062-2.446-2.55-2.504h-1.562v5.576h-1.643l.002-12.705zm1.646 5.863h1.686c1.769 0 2.883-.971 2.883-2.444 0-1.663-1.19-2.388-2.943-2.405-.79 0-1.366.073-1.626.148v4.701zm26.82 2.793l-1.326 4.047h-1.701L418.968.617h1.985l4.36 12.874h-1.762l-1.361-4.047h-4.539zm4.194-1.298l-1.246-3.71c-.293-.837-.48-1.602-.665-2.347h-.045c-.185.762-.392 1.55-.644 2.327l-1.247 3.73h3.847zm21.452 5.345V.617h1.801l4.102 6.515c.939 1.507 1.683 2.863 2.29 4.184l.04-.02c-.155-1.72-.187-3.286-.187-5.292V.617h1.554V13.49h-1.674l-4.052-6.536c-.886-1.429-1.748-2.898-2.393-4.293l-.055.02c.095 1.626.138 3.171.138 5.308v5.5h-1.564zm31.01-11.46h-3.89V.619h9.465v1.412h-3.905v11.46h-1.67V2.03z" fill-rule="nonzero"/>
    </g>
</symbol><symbol id="icon-behance" viewBox="0 0 27 17">
    <title>
        behance
    </title>
    <path d="M24.38 2.41h-6.76V.71h6.77v1.7zm-11.27 7a4.54 4.54 0 0 1 .65 2.49 5 5 0 0 1-.76 2.68 4.68 4.68 0 0 1-1.19 1.34 4.57 4.57 0 0 1-1.9.85 11.59 11.59 0 0 1-2.34.23H0V0h8.11c2 0 3.49.63 4.35 1.81a4.36 4.36 0 0 1 .77 2.6 3.81 3.81 0 0 1-.78 2.5 4 4 0 0 1-1.28 1 3.74 3.74 0 0 1 1.94 1.47zM3.87 6.7h3.56a3.34 3.34 0 0 0 1.78-.42 1.61 1.61 0 0 0 .68-1.49A1.52 1.52 0 0 0 9 3.22 6.28 6.28 0 0 0 7 3H3.87v3.7zm6.35 4.92A1.83 1.83 0 0 0 9.16 9.8a4.17 4.17 0 0 0-1.68-.29H3.87V14h3.55a3.9 3.9 0 0 0 1.7-.3 2.15 2.15 0 0 0 1.11-2.07zm16.67-2.76a16.18 16.18 0 0 1 .1 2.42h-8.75a2.92 2.92 0 0 0 1.26 2.57 3.14 3.14 0 0 0 1.73.46 2.63 2.63 0 0 0 1.77-.56 2.65 2.65 0 0 0 .65-.84h3.21a4 4 0 0 1-1.17 2.2 5.81 5.81 0 0 1-4.53 1.78 6.52 6.52 0 0 1-4.24-1.5q-1.83-1.5-1.83-4.88a6.64 6.64 0 0 1 1.66-4.85A5.77 5.77 0 0 1 21 4a6.79 6.79 0 0 1 2.83.57 4.89 4.89 0 0 1 2.08 1.8 6.05 6.05 0 0 1 .98 2.49zm-3.16.32a2.67 2.67 0 0 0-.84-1.92A2.72 2.72 0 0 0 21 6.59a2.48 2.48 0 0 0-1.88.7 3.3 3.3 0 0 0-.84 1.89h5.42z"/>
</symbol><symbol id="icon-chevron-down" viewBox="0 0 12 7.4">
    <path d="M1.4 0L6 4.6 10.6 0 12 1.4l-6 6-6-6L1.4 0z"/>
</symbol><symbol id="icon-circle" viewBox="0 0 276 276">
    <title>
        7AB6F0F1-D082-4830-901B-EDB4867741B7
    </title>
    <circle cx="603" cy="1757" r="138" transform="translate(-465 -1619)" fill-rule="nonzero"/>
</symbol><symbol id="icon-close" viewBox="0 0 19 19">
    <title>
        Shape
    </title>
    <path d="M1.53 1.006a.586.586 0 0 0-.348 1.007l7.493 7.493-7.493 7.484a.586.586 0 1 0 .823.833L9.5 10.329l7.493 7.494a.586.586 0 1 0 .823-.833l-7.493-7.484 7.493-7.493a.586.586 0 1 0-.823-.833L9.499 8.673 2.005 1.18a.586.586 0 0 0-.475-.174z" fill-rule="nonzero"/>
</symbol><symbol id="icon-code" viewBox="0 0 39 23">
    <title>
        code
    </title>
    <path d="M23.014-2H23h.014zM22.957.679c-.451.01-.837.274-.964.668l-6.95 20.493a.809.809 0 0 0 .082.69.997.997 0 0 0 .6.432c.264.069.543.043.782-.072a.937.937 0 0 0 .492-.542l6.955-20.504a.818.818 0 0 0-.16-.81 1.07 1.07 0 0 0-.837-.355zM9.204 1.889l-8.94 8.842a.864.864 0 0 0-.001 1.243l8.94 8.844.058.06c.173.198.424.318.696.334.27.017.535-.071.735-.247a.879.879 0 0 0 .308-.662.884.884 0 0 0-.314-.667l-.064-.058L2.3 11.363l.812-.803 7.522-7.442a.866.866 0 0 0 .189-1.015.987.987 0 0 0-.944-.53c-.257.018-.49.125-.675.316zm18.97.224c-.161.34-.085.736.205 1.015l8.32 8.233-8.321 8.216-.064.06a.882.882 0 0 0-.314.662.883.883 0 0 0 .31.668c.198.174.462.262.737.245.268-.016.519-.136.692-.333l.057-.061 8.94-8.843a.864.864 0 0 0 .001-1.243l-8.959-8.863a1 1 0 0 0-.67-.297c-.406-.012-.773.203-.934.541z" fill-rule="evenodd"/>
</symbol><symbol id="icon-design" viewBox="0 0 39 40.65">
    <title>
        design
    </title>
    <g>
        <path d="M37 4.11a2 2 0 0 0 2-2.05 2 2 0 0 0-3.9-.67H21.47V0h-4v1.38H3.9A2 2 0 0 0 2 0a2 2 0 0 0-2 2.05 2 2 0 0 0 2 2.06 2 2 0 0 0 1.9-1.39h8.5A18.72 18.72 0 0 0 1.31 17.93H0V22h4v-4.06H2.87A16.92 16.92 0 0 1 17.49 3v1.15h4V3a16.92 16.92 0 0 1 14.6 14.94H35V22h4v-4.06h-1.35A18.72 18.72 0 0 0 26.56 2.72h8.54A2 2 0 0 0 37 4.11z"/>
        <path d="M13 36.71V39h13.35v-2.29H13zm13.74-1.6a1.25 1.25 0 0 1 1.13 1.36v2.82a1.25 1.25 0 0 1-1.13 1.36H12.61a1.25 1.25 0 0 1-1.13-1.36v-2.82a1.25 1.25 0 0 1 1.13-1.36h14.17z"/>
        <path d="M29.39 24.26l-1.59 8.48a1.85 1.85 0 0 1-1.8 1.55H12.71a1.91 1.91 0 0 1-1.81-1.57l-1.58-8.43A4.78 4.78 0 0 1 9.81 21l6.73-12.59A3.77 3.77 0 0 1 18 7.09l.6-.29a.5.5 0 0 1 .71.45V20l-.58.24a2.13 2.13 0 0 0-1.26 1.94 1.87 1.87 0 1 0 3.72 0 2 2 0 0 0-1.24-1.93l-.6-.25V7.23a.5.5 0 0 1 .7-.46l.61.23a3.35 3.35 0 0 1 1.52 1.5l6.71 12.44a4.76 4.76 0 0 1 .5 3.32zM17.46 10.62l-6 11.27a2.87 2.87 0 0 0-.29 2l1.58 8.42v.07H26s.53-2.84 1.6-8.52a2.85 2.85 0 0 0-.31-2L21.2 10.61v8.14a4 4 0 0 1 1.8 3.41 3.82 3.82 0 0 1-3.71 3.93 3.82 3.82 0 0 1-3.71-3.93 4.07 4.07 0 0 1 1.84-3.4v-8.14z"/>
    </g>
</symbol><symbol id="icon-dribbble" viewBox="0 0 27 27">
    <title>
        dribbble
    </title>
    <path d="M13.5 0A13.5 13.5 0 1 0 27 13.5 13.5 13.5 0 0 0 13.5 0zm10.92 12.53a35 35 0 0 0-7.23.48q-.42-1-.85-1.92l.53-.26a16 16 0 0 0 5.24-4.11 10.85 10.85 0 0 1 2.31 5.81zm-4.1-7.62a13.59 13.59 0 0 1-5.1 3.91c-.22-.44-.48-.82-.71-1.27a49.45 49.45 0 0 0-3.11-4.81 11.08 11.08 0 0 1 2.1-.2 10.88 10.88 0 0 1 6.81 2.37zm-14.57.84a11 11 0 0 1 3.1-2.18 45.93 45.93 0 0 1 3.49 5.3l.48.87a25.32 25.32 0 0 1-3.41.79 32.67 32.67 0 0 1-6.56.37 10.89 10.89 0 0 1 2.9-5.15zM2.54 13.5v-.08H4.3A34.76 34.76 0 0 0 9.75 13 27.16 27.16 0 0 0 14 12q.35.74.69 1.54a22.59 22.59 0 0 0-4.61 1.77 15.91 15.91 0 0 0-5.46 4.56 10.88 10.88 0 0 1-2.08-6.37zm3.81 8.31c1.93-2.82 5-4.79 9.26-5.87a40 40 0 0 1 2 7.73 11 11 0 0 1-11.26-1.86zm14.9-.56A11.11 11.11 0 0 1 20 22.36a42.86 42.86 0 0 0-1.84-6.93 32.88 32.88 0 0 1 6.22-.36 10.88 10.88 0 0 1-3.13 6.18z"/>
</symbol><symbol id="icon-facebook" viewBox="0 0 10 19">
    <title>
        facebook
    </title>
    <path d="M9.766.157v2.946H8.014c-.64 0-1.071.134-1.295.402-.223.268-.335.67-.335 1.205v2.11h3.27l-.435 3.303H6.384v8.471H2.97v-8.47H.123V6.82H2.97V4.387c0-1.384.387-2.457 1.161-3.22C4.904.404 5.934.023 7.222.023c1.093 0 1.941.045 2.544.134z" fill-rule="evenodd"/>
</symbol><symbol id="icon-half-circle" viewBox="0 0 562 1124">
    <style>
        .st0{opacity:.2}.st1{fill:#9dd97a}
    </style>
    <title>
        7201CD2A-B851-4A8C-8BE5-D0107D079540
    </title>
    <g id="Design" class="st0">
        <g id="_x31_.-Case---bamboobar" transform="translate(-647 -8876)">
            <g id="_x36_" transform="translate(19 8104)">
                <path class="st1" d="M628 1896v-200c199.6 0 362-162.4 362-362S827.6 972 628 972V772c75.8 0 149.4 14.9 218.8 44.2 66.9 28.3 127 68.8 178.6 120.4 51.6 51.6 92.1 111.7 120.4 178.6 29.3 69.4 44.2 143 44.2 218.8 0 75.8-14.9 149.4-44.2 218.8-28.3 66.9-68.8 127-120.4 178.6-51.6 51.6-111.7 92.1-178.6 120.4-69.4 29.3-143 44.2-218.8 44.2z" id="Oval-Copy"/>
            </g>
        </g>
    </g>
</symbol><symbol id="icon-prototype" viewBox="0 0 38 16">
    <title>
        prototype
    </title>
    <path d="M37.999 14.114c0 1.037-.866 1.886-1.922 1.886H1.922C.866 16 0 15.151 0 14.114L.001 1.886C.001.849.867 0 1.923 0h34.155C37.134 0 38 .849 38 1.886v.475l-.001 11.753zm-1.93-12.223H33.2v4.698a.954.954 0 0 1-.963.945.954.954 0 0 1-.962-.946V1.891h-2.682v2.817a.954.954 0 0 1-.962.945.954.954 0 0 1-.963-.946V1.891h-2.39v2.817a.954.954 0 0 1-.963.945.954.954 0 0 1-.963-.946V1.891h-2.39v4.698a.954.954 0 0 1-.963.945.954.954 0 0 1-.963-.946V1.891h-2.39v2.817a.954.954 0 0 1-.963.945.954.954 0 0 1-.963-.946V1.891h-2.39v2.817a.954.954 0 0 1-.963.945.954.954 0 0 1-.963-.946V1.891h-2.68v4.698a.954.954 0 0 1-.964.945.954.954 0 0 1-.962-.946V1.891h-2.87v12.22h34.148V2.36l-.006-.47z" fill-rule="nonzero"/>
</symbol><symbol id="icon-quaver" viewBox="0 0 40 40">
    <title>
        A2DD5D7A-0774-4C4A-92F2-CD3B95D88813
    </title>
    <path d="M13.598 7.006v20.105a6.929 6.929 0 0 0-3.63-1.027C6.122 26.084 3 29.199 3 33.04 3 36.884 6.12 40 9.969 40a6.962 6.962 0 0 0 6.966-6.958V14.294l17.728-5.089v11.903a6.931 6.931 0 0 0-3.63-1.027c-3.848 0-6.97 3.115-6.97 6.953 0 3.843 3.12 6.96 6.97 6.96a6.965 6.965 0 0 0 6.934-6.305H38V0L13.598 7.006z" fill-rule="evenodd"/>
</symbol><symbol id="icon-wave" viewBox="0 0 80 7">
    <title>
        40E1608D-5890-4BC3-BCE4-AD324B0CB997
    </title>
    <path d="M69.123 7c-2.881 0-4.348-1.387-5.643-2.61-1.169-1.105-2.092-1.978-4.066-1.978-1.973 0-2.896.873-4.065 1.978C54.054 5.613 52.587 7 49.706 7c-2.88 0-4.348-1.387-5.643-2.61-1.168-1.105-2.092-1.978-4.065-1.978-1.973 0-2.896.873-4.065 1.978C34.638 5.613 33.17 7 30.29 7c-2.88 0-4.347-1.387-5.642-2.61-1.168-1.105-2.092-1.978-4.064-1.978-1.973 0-2.897.873-4.065 1.978C15.224 5.613 13.757 7 10.876 7c-2.88 0-4.348-1.387-5.643-2.61-1.169-1.105-2.092-1.978-4.065-1.978C.523 2.412 0 1.872 0 1.206 0 .54.523 0 1.168 0c2.88 0 4.348 1.387 5.643 2.61 1.168 1.105 2.092 1.978 4.065 1.978 1.973 0 2.896-.873 4.065-1.978C16.236 1.387 17.703 0 20.584 0c2.88 0 4.347 1.387 5.642 2.61 1.168 1.105 2.091 1.978 4.064 1.978 1.973 0 2.897-.873 4.066-1.978C35.65 1.387 37.117 0 39.998 0c2.88 0 4.348 1.387 5.643 2.61 1.169 1.105 2.092 1.978 4.065 1.978 1.973 0 2.897-.873 4.066-1.978C55.066 1.387 56.534 0 59.414 0c2.881 0 4.349 1.387 5.643 2.61 1.17 1.105 2.092 1.978 4.066 1.978 1.973 0 2.897-.873 4.066-1.978C74.484 1.387 75.95 0 78.832 0 79.477 0 80 .54 80 1.206c0 .666-.523 1.206-1.168 1.206-1.974 0-2.897.873-4.066 1.978C73.47 5.613 72.004 7 69.123 7z" fill-rule="evenodd"/>
</symbol></svg>