<?xml version="1.0" encoding="UTF-8"?><!DOCTYPE svg PUBLIC "-//W3C//DTD SVG 1.1//EN" "http://www.w3.org/Graphics/SVG/1.1/DTD/svg11.dtd"><svg xmlns="http://www.w3.org/2000/svg"><symbol id="icon-arrow-left" viewBox="0 0 10 18">
    <title>
        arrow-left
    </title>
    <path d="M.28 8.34l8-8.05A1.05 1.05 0 0 1 9.7.26a.93.93 0 0 1 0 1.33L2.3 9l7.44 7.4a1 1 0 0 1 0 1.35 1.05 1.05 0 0 1-1.42 0l-8-8.05A.82.82 0 0 1 0 9a1.07 1.07 0 0 1 .28-.66z"/>
</symbol><symbol id="icon-arrow-right" viewBox="0 0 10 18">
    <title>
        arrow-right
    </title>
    <path data-name="Page-1" d="M9.72 8.34l-8-8.05A1.05 1.05 0 0 0 .3.26a.93.93 0 0 0 0 1.33L7.7 9 .27 16.4a1 1 0 0 0 0 1.35 1.05 1.05 0 0 0 1.42 0l8-8.05A.82.82 0 0 0 10 9a1.07 1.07 0 0 0-.28-.66z"/>
</symbol><symbol id="icon-behance" viewBox="0 0 27 17">
    <title>
        behance
    </title>
    <path d="M24.38 2.41h-6.76V.71h6.77v1.7zm-11.27 7a4.54 4.54 0 0 1 .65 2.49 5 5 0 0 1-.76 2.68 4.68 4.68 0 0 1-1.19 1.34 4.57 4.57 0 0 1-1.9.85 11.59 11.59 0 0 1-2.34.23H0V0h8.11c2 0 3.49.63 4.35 1.81a4.36 4.36 0 0 1 .77 2.6 3.81 3.81 0 0 1-.78 2.5 4 4 0 0 1-1.28 1 3.74 3.74 0 0 1 1.94 1.47zM3.87 6.7h3.56a3.34 3.34 0 0 0 1.78-.42 1.61 1.61 0 0 0 .68-1.49A1.52 1.52 0 0 0 9 3.22 6.28 6.28 0 0 0 7 3H3.87v3.7zm6.35 4.92A1.83 1.83 0 0 0 9.16 9.8a4.17 4.17 0 0 0-1.68-.29H3.87V14h3.55a3.9 3.9 0 0 0 1.7-.3 2.15 2.15 0 0 0 1.11-2.07zm16.67-2.76a16.18 16.18 0 0 1 .1 2.42h-8.75a2.92 2.92 0 0 0 1.26 2.57 3.14 3.14 0 0 0 1.73.46 2.63 2.63 0 0 0 1.77-.56 2.65 2.65 0 0 0 .65-.84h3.21a4 4 0 0 1-1.17 2.2 5.81 5.81 0 0 1-4.53 1.78 6.52 6.52 0 0 1-4.24-1.5q-1.83-1.5-1.83-4.88a6.64 6.64 0 0 1 1.66-4.85A5.77 5.77 0 0 1 21 4a6.79 6.79 0 0 1 2.83.57 4.89 4.89 0 0 1 2.08 1.8 6.05 6.05 0 0 1 .98 2.49zm-3.16.32a2.67 2.67 0 0 0-.84-1.92A2.72 2.72 0 0 0 21 6.59a2.48 2.48 0 0 0-1.88.7 3.3 3.3 0 0 0-.84 1.89h5.42z"/>
</symbol><symbol id="icon-close" viewBox="0 0 19 19">
    <title>
        Shape
    </title>
    <path d="M1.53 1.006a.586.586 0 0 0-.348 1.007l7.493 7.493-7.493 7.484a.586.586 0 1 0 .823.833L9.5 10.329l7.493 7.494a.586.586 0 1 0 .823-.833l-7.493-7.484 7.493-7.493a.586.586 0 1 0-.823-.833L9.499 8.673 2.005 1.18a.586.586 0 0 0-.475-.174z" fill-rule="nonzero"/>
</symbol><symbol id="icon-dribbble" viewBox="0 0 27 27">
    <title>
        dribbble
    </title>
    <path d="M13.5 0A13.5 13.5 0 1 0 27 13.5 13.5 13.5 0 0 0 13.5 0zm10.92 12.53a35 35 0 0 0-7.23.48q-.42-1-.85-1.92l.53-.26a16 16 0 0 0 5.24-4.11 10.85 10.85 0 0 1 2.31 5.81zm-4.1-7.62a13.59 13.59 0 0 1-5.1 3.91c-.22-.44-.48-.82-.71-1.27a49.45 49.45 0 0 0-3.11-4.81 11.08 11.08 0 0 1 2.1-.2 10.88 10.88 0 0 1 6.81 2.37zm-14.57.84a11 11 0 0 1 3.1-2.18 45.93 45.93 0 0 1 3.49 5.3l.48.87a25.32 25.32 0 0 1-3.41.79 32.67 32.67 0 0 1-6.56.37 10.89 10.89 0 0 1 2.9-5.15zM2.54 13.5v-.08H4.3A34.76 34.76 0 0 0 9.75 13 27.16 27.16 0 0 0 14 12q.35.74.69 1.54a22.59 22.59 0 0 0-4.61 1.77 15.91 15.91 0 0 0-5.46 4.56 10.88 10.88 0 0 1-2.08-6.37zm3.81 8.31c1.93-2.82 5-4.79 9.26-5.87a40 40 0 0 1 2 7.73 11 11 0 0 1-11.26-1.86zm14.9-.56A11.11 11.11 0 0 1 20 22.36a42.86 42.86 0 0 0-1.84-6.93 32.88 32.88 0 0 1 6.22-.36 10.88 10.88 0 0 1-3.13 6.18z"/>
</symbol><symbol id="icon-facebook" viewBox="0 0 10 19">
    <title>
        facebook
    </title>
    <path d="M9.766.157v2.946H8.014c-.64 0-1.071.134-1.295.402-.223.268-.335.67-.335 1.205v2.11h3.27l-.435 3.303H6.384v8.471H2.97v-8.47H.123V6.82H2.97V4.387c0-1.384.387-2.457 1.161-3.22C4.904.404 5.934.023 7.222.023c1.093 0 1.941.045 2.544.134z" fill-rule="evenodd"/>
</symbol></svg>